<svg xmlns="http://www.w3.org/2000/svg" width="50" height="46" viewBox="0 0 50 46" fill="none">
  <path d="M50.0002 25.0021C49.6875 25.4711 49.2306 25.6394 48.6774 25.6154C48.1964 25.5913 47.7155 25.6154 47.2345 25.6033C46.5611 25.5913 46.1402 25.2426 46.1041 24.6774C46.056 24.1002 46.4408 23.6433 47.1262 23.5952C47.7515 23.5471 48.3768 23.5711 48.9901 23.5832C49.435 23.5952 49.7717 23.8477 49.9881 24.2325C50.0002 24.497 50.0002 24.7496 50.0002 25.0021Z" fill="#00C9FF"/>
  <path d="M25.4333 13.9271C29.2572 13.9271 33.0811 13.9511 36.905 13.915C37.9993 13.903 38.7689 14.3239 39.3461 15.2258C41.0295 17.8472 42.7371 20.4566 44.4205 23.09C45.118 24.1602 45.0098 25.1823 44.132 26.1563C38.5284 32.4453 32.9248 38.7463 27.3212 45.0353C26.1668 46.322 24.6637 46.322 23.5094 45.0233C18.8557 39.7925 14.1901 34.5617 9.53649 29.3309C8.57451 28.2487 7.60049 27.1544 6.63851 26.0722C5.84487 25.1823 5.76069 24.1241 6.41004 23.114C8.12959 20.4566 9.86116 17.7991 11.5807 15.1416C12.1218 14.3119 12.8553 13.915 13.8654 13.915C17.7254 13.9391 21.5854 13.9271 25.4333 13.9271ZM41.8713 25.6513C41.727 25.6272 41.6669 25.6152 41.6067 25.6152C38.6607 25.6152 35.7146 25.6152 32.7805 25.6032C32.4438 25.6032 32.3476 25.7715 32.2634 26.0481C30.8806 30.5574 29.4857 35.0667 28.1028 39.564C27.8864 40.2615 27.682 40.9589 27.4655 41.6563C27.5016 41.6804 27.5377 41.6924 27.5737 41.7165C32.3115 36.3895 37.0613 31.0504 41.8713 25.6513ZM23.2809 41.7044C23.317 41.6804 23.341 41.6684 23.3771 41.6443C23.353 41.5361 23.329 41.4399 23.2929 41.3317C21.7297 36.2572 20.1664 31.1947 18.6152 26.1203C18.495 25.7234 18.3146 25.6032 17.9058 25.6032C15.092 25.6152 12.2782 25.6152 9.46434 25.6152C9.33207 25.6152 9.17575 25.5551 9.03145 25.7114C13.7813 31.0384 18.5311 36.3774 23.2809 41.7044ZM25.4093 41.1273C25.5656 41.0431 25.5656 40.9108 25.6017 40.7906C27.1168 35.8844 28.6199 30.9783 30.135 26.0842C30.2553 25.6753 30.1711 25.5912 29.7623 25.6032C26.9966 25.6152 24.2308 25.6152 21.4651 25.6152C20.5633 25.6152 20.5633 25.6152 20.8278 26.457C22.2708 31.1346 23.7018 35.8002 25.1568 40.4779C25.2169 40.6944 25.2409 40.9469 25.4093 41.1273ZM31.6862 15.9232C30.3755 15.9232 29.0648 15.9232 27.7541 15.9232C27.6339 15.9232 27.4655 15.8631 27.3934 15.9713C27.2852 16.1156 27.4535 16.2358 27.5257 16.3441C28.8123 18.3402 30.123 20.3363 31.3976 22.3445C31.6141 22.6691 31.7223 22.6571 31.9147 22.3445C33.2134 20.3243 34.5121 18.3161 35.8108 16.296C35.8709 16.1998 36.0272 16.0915 35.931 15.9713C35.8829 15.9112 35.7266 15.9232 35.6184 15.9232C34.3077 15.9232 32.997 15.9232 31.6862 15.9232ZM14.8755 15.9232C14.9236 16.0434 14.9356 16.0915 14.9597 16.1396C16.3065 18.2199 17.6533 20.3002 18.988 22.3805C19.1684 22.6571 19.2646 22.6571 19.445 22.3685C20.7316 20.3604 22.0303 18.3642 23.317 16.3681C23.3891 16.2479 23.5454 16.1396 23.4733 15.9953C23.3891 15.851 23.2087 15.9232 23.0765 15.9232C21.0803 15.9232 19.0842 15.9232 17.0881 15.9232C16.3666 15.9232 15.6451 15.9232 14.8755 15.9232ZM12.9395 23.571C14.2502 23.571 15.5609 23.559 16.8716 23.571C17.2444 23.571 17.2925 23.4868 17.0881 23.1742C15.7894 21.1901 14.5028 19.206 13.2401 17.2099C12.9996 16.8371 12.8674 16.8732 12.6509 17.2219C11.3763 19.1939 10.0896 21.166 8.815 23.1381C8.74285 23.2463 8.61058 23.3425 8.6707 23.4748C8.74285 23.6311 8.92323 23.571 9.0555 23.571C10.3542 23.571 11.6529 23.571 12.9395 23.571ZM37.9392 23.571C39.2378 23.571 40.5245 23.571 41.8232 23.571C41.9434 23.571 42.0998 23.6191 42.1839 23.4988C42.2681 23.3666 42.1238 23.2583 42.0637 23.1621C40.777 21.166 39.4663 19.1699 38.1917 17.1618C37.9993 16.8491 37.9031 16.8251 37.6866 17.1497C36.412 19.1459 35.1253 21.1179 33.8387 23.102C33.7665 23.2102 33.6102 23.3305 33.7184 23.4868C33.8146 23.6191 33.983 23.571 34.1273 23.571C35.3899 23.571 36.6645 23.571 37.9392 23.571ZM25.3852 23.571C26.6839 23.571 27.9706 23.559 29.2693 23.571C29.6661 23.571 29.7142 23.4628 29.4977 23.1381C28.2111 21.166 26.9364 19.206 25.6618 17.2219C25.4333 16.8732 25.3371 16.9573 25.1568 17.2459C23.8941 19.206 22.6195 21.166 21.3569 23.1261C21.2848 23.2343 21.1284 23.3545 21.2246 23.4988C21.2968 23.6071 21.4651 23.571 21.5854 23.571C22.86 23.571 24.1226 23.571 25.3852 23.571Z" fill="#00C9FF"/>
  <path d="M24.435 4.12683C24.435 3.1408 24.423 2.14274 24.435 1.1567C24.4471 0.459259 24.8078 0.0263652 25.397 0.00231555C25.9983 -0.0217341 26.371 0.351036 26.4672 1.0605C26.4793 1.1086 26.4793 1.1567 26.4793 1.2048C26.4793 3.15282 26.4793 5.10085 26.4793 7.0609C26.4793 7.31342 26.4312 7.56594 26.2748 7.79441C26.0103 8.1792 25.6375 8.3235 25.1926 8.21528C24.7597 8.11908 24.4591 7.72226 24.4471 7.20519C24.423 6.17106 24.4471 5.14895 24.435 4.12683Z" fill="#00C9FF"/>
  <path d="M12.9394 11.0531C12.9274 11.7987 12.1819 12.2796 11.5325 11.979C11.3762 11.9069 11.2199 11.7987 11.0996 11.6784C10.1136 10.6924 9.12754 9.71835 8.15353 8.72029C7.63646 8.17917 7.61241 7.62603 8.04531 7.18111C8.45415 6.76024 9.06742 6.79632 9.58449 7.28934C10.5946 8.27537 11.5806 9.27344 12.5787 10.2715C12.7951 10.5 12.9154 10.7765 12.9394 11.0531Z" fill="#00C9FF"/>
  <path d="M43.1217 8.01068C43.1337 8.23915 42.9774 8.49167 42.7609 8.70812C41.7629 9.7182 40.7528 10.7283 39.7427 11.7264C39.2737 12.1833 38.6484 12.1953 38.2516 11.7865C37.8548 11.3776 37.8668 10.7644 38.3358 10.2954C39.3338 9.28531 40.3439 8.27522 41.354 7.27716C41.6907 6.94046 42.0875 6.82022 42.5324 7.00059C42.9172 7.16894 43.1096 7.48158 43.1217 8.01068Z" fill="#00C9FF"/>
  <path d="M2.79044 25.6032C2.45375 25.6032 2.11705 25.6272 1.79238 25.6032C1.22721 25.5551 0.842418 25.1703 0.830393 24.6652C0.806344 24.1361 1.11899 23.7273 1.69618 23.6311C2.44172 23.5108 3.18726 23.5108 3.9328 23.6311C4.46189 23.7153 4.78656 24.1361 4.76251 24.6412C4.73846 25.1582 4.36569 25.5551 3.81255 25.6032C3.46383 25.6272 3.12714 25.6032 2.79044 25.6032Z" fill="#00C9FF"/>
  <path d="M25.4453 9.50195C25.9985 9.50195 26.4193 9.9108 26.4314 10.4639C26.4434 11.0171 25.9985 11.4861 25.4453 11.4861C24.9162 11.4861 24.4593 11.0411 24.4473 10.512C24.4352 9.97092 24.8922 9.51398 25.4453 9.50195Z" fill="#00C9FF"/>
</svg>