<svg xmlns="http://www.w3.org/2000/svg" width="33" height="32" viewBox="0 0 33 32" fill="none">
<path fill-rule="evenodd" clip-rule="evenodd" d="M14.3209 15.699V23.3495C14.3209 23.4591 14.4105 23.5487 14.5201 23.5487H17.3608C17.4704 23.5487 17.56 23.4591 17.56 23.3495V15.5745H19.6204C19.7234 15.5745 19.8097 15.4948 19.8196 15.3919L20.0172 13.0493C20.0272 12.9331 19.9359 12.8334 19.818 12.8334H17.56V11.1715C17.56 10.7814 17.8755 10.4659 18.2657 10.4659H19.8529C19.9624 10.4659 20.0521 10.3763 20.0521 10.2667V7.92408C20.0521 7.81451 19.9624 7.72485 19.8529 7.72485H17.1715C15.5976 7.72485 14.3226 9.00159 14.3226 10.5738V12.8318H12.9014C12.7918 12.8318 12.7021 12.9214 12.7021 13.031V15.3736C12.7021 15.4832 12.7918 15.5729 12.9014 15.5729H14.3226V15.699H14.3209Z" fill="white"/>
<path d="M16.3765 0C7.7548 0 0.740234 7.01456 0.740234 15.6363C0.740234 24.2579 7.7548 31.2725 16.3765 31.2725C24.9982 31.2725 32.0127 24.2579 32.0127 15.6363C32.0127 7.01456 24.9982 0 16.3765 0ZM30.0072 15.6363C30.0072 23.1522 23.8925 29.2669 16.3765 29.2669C8.86053 29.2669 2.74582 23.1522 2.74582 15.6363C2.74582 8.12029 8.86053 2.00558 16.3765 2.00558C23.8925 2.00558 30.0072 8.12029 30.0072 15.6363Z" fill="white"/>
</svg>