<svg xmlns="http://www.w3.org/2000/svg" width="26" height="29" viewBox="0 0 26 29" fill="none">
<path fill-rule="evenodd" clip-rule="evenodd" d="M6.23563 11.4291C6.41221 11.0757 6.68364 10.7785 7.01954 10.5706C7.35545 10.3627 7.74258 10.2524 8.13762 10.252H17.4656C17.861 10.252 18.2485 10.3621 18.5848 10.57C18.9212 10.7779 19.1929 11.0754 19.3697 11.4291L23.1077 18.9062C23.3295 19.3489 23.4454 19.8372 23.4461 20.3324V26.2172C23.4461 26.7817 23.2218 27.3232 22.8226 27.7224C22.4234 28.1216 21.882 28.3458 21.3174 28.3458H4.28787C3.72331 28.3458 3.18187 28.1216 2.78266 27.7224C2.38345 27.3232 2.15918 26.7817 2.15918 26.2172V20.3334C2.15938 19.8379 2.27489 19.3493 2.49658 18.9062L6.23563 11.4291ZM17.4656 12.3806H8.13868L4.4156 19.8311H8.01309C8.43651 19.8311 8.84259 19.9993 9.142 20.2987C9.4414 20.5981 9.60961 21.0042 9.60961 21.4276V22.4919C9.60961 22.6331 9.66568 22.7684 9.76548 22.8682C9.86528 22.968 10.0006 23.0241 10.1418 23.0241H15.4635C15.6047 23.0241 15.74 22.968 15.8398 22.8682C15.9396 22.7684 15.9957 22.6331 15.9957 22.4919V21.4276C15.9957 21.0042 16.1639 20.5981 16.4633 20.2987C16.7627 19.9993 17.1688 19.8311 17.5922 19.8311H21.1897L17.4656 12.3806Z" fill="#01053A"/>
</svg>