<svg xmlns="http://www.w3.org/2000/svg" width="117" height="127" viewBox="0 0 117 127" fill="none">
  <mask id="mask0_233_6353" style="mask-type:luminance" maskUnits="userSpaceOnUse" x="0" y="0" width="117" height="127">
    <path d="M116.78 0H0.239258V126.139H116.78V0Z" fill="white"/>
  </mask>
  <g mask="url(#mask0_233_6353)">
    <path d="M69.9974 56.5321C69.9974 66.9618 69.9974 77.4671 69.9974 87.8968C69.9974 89.5595 69.9974 90.7688 72.1891 91.3734C76.1947 92.5071 78.2353 96.3615 77.5551 100.292C76.8749 104.222 73.7763 106.867 69.4683 106.867C53.9749 106.942 38.4059 106.867 22.9125 106.867C18.2266 106.867 13.6164 106.867 8.93058 106.867C4.24476 106.791 1.0705 104.222 0.390298 99.9893C-0.214324 96.1348 1.90185 92.5826 6.05863 91.2978C8.25038 90.6176 7.79691 89.2572 7.79691 87.8968C7.79691 68.2466 7.79691 48.5964 7.79691 28.9462C7.79691 20.1792 7.19229 21.1617 15.657 21.1617C32.3597 21.1617 49.0623 21.1617 65.765 21.1617C69.8462 21.1617 70.0729 21.3885 70.0729 25.4697C69.9974 35.8238 69.9974 46.1779 69.9974 56.5321ZM65.765 25.5452H12.1048V90.7688H65.765V25.5452ZM38.8594 102.786C48.6845 102.786 58.5096 102.786 68.3347 102.786C71.6601 102.786 73.4739 101.425 73.5495 99.0068C73.6251 96.4371 71.7357 94.9256 68.3347 94.9256C60.928 94.9256 53.5214 94.9256 46.1904 94.9256C33.9468 94.9256 21.7032 94.9256 9.45962 94.9256C7.26787 94.9256 5.454 95.379 4.62265 97.6464C3.64014 100.443 5.68074 102.71 9.15731 102.786C18.9824 102.786 28.9587 102.786 38.8594 102.786Z" fill="#01053A"/>
  </g>
  <mask id="mask1_233_6353" style="mask-type:luminance" maskUnits="userSpaceOnUse" x="0" y="0" width="117" height="127">
    <path d="M116.78 0H0.239258V126.139H116.78V0Z" fill="white"/>
  </mask>
  <g mask="url(#mask1_233_6353)">
    <path d="M36.1386 4.3835C37.0455 2.94752 37.8768 1.43598 38.7838 0C39.8419 1.43598 40.8244 2.87196 42.4115 4.98813C47.6264 4.98813 53.9749 4.98813 60.2478 4.98813C64.4802 4.98813 64.6313 5.13929 64.6313 9.14491C64.5558 18.2898 65.9162 17.2317 56.6201 17.2317C43.5452 17.3073 30.4702 17.2317 17.3953 17.2317C13.4652 17.2317 13.2385 17.0806 13.3141 13.1505C13.3897 3.77888 12.0293 4.98813 21.5521 4.91255C26.389 4.91255 31.226 4.91255 36.1386 4.83697C36.3653 4.83697 36.5164 4.68582 36.7432 4.61024C36.4409 4.61024 36.2897 4.45908 36.1386 4.3835ZM60.6257 9.29605H17.3953V12.9238H60.6257V9.29605Z" fill="#01053A"/>
  </g>
  <mask id="mask2_233_6353" style="mask-type:luminance" maskUnits="userSpaceOnUse" x="0" y="0" width="117" height="127">
    <path d="M116.78 0H0.239258V126.139H116.78V0Z" fill="white"/>
  </mask>
  <g mask="url(#mask2_233_6353)">
    <path d="M65.7651 90.7688H12.105V25.5452H65.7651V90.7688ZM31.7552 57.7413C31.7552 59.7064 31.8308 61.747 31.7552 63.712C31.6796 65.8281 32.511 66.8862 34.7027 66.8107C37.5747 66.7351 40.371 66.7351 43.243 66.8107C45.208 66.8862 46.1905 65.9793 46.1905 64.0143C46.1905 60.0087 46.1905 56.003 46.1905 51.9974C46.1905 50.0324 45.208 49.1255 43.243 49.2011C42.2605 49.2766 41.3536 49.2011 40.371 49.2011C30.3948 49.3522 31.8308 47.9918 31.7552 57.7413ZM31.7552 78.4496C31.7552 80.5658 31.7552 82.682 31.7552 84.7982C31.7552 86.612 32.511 87.5945 34.4004 87.519C37.4235 87.519 40.5222 87.519 43.5453 87.519C45.4347 87.519 46.1905 86.4609 46.1905 84.7226C46.1905 80.717 46.1905 76.7114 46.1905 72.7057C46.1905 70.7407 45.1324 69.8338 43.1674 69.9094C42.1849 69.9094 41.278 69.9094 40.2955 69.9094C30.3192 69.9094 31.8308 68.9268 31.7552 78.4496ZM46.1149 37.4109C46.1149 35.3703 46.1149 33.4053 46.1149 31.3647C46.1149 29.3997 45.208 28.4172 43.243 28.4928C40.2955 28.5684 37.3479 28.266 34.4004 28.6439C33.4179 28.7195 31.9063 30.1555 31.9063 30.9868C31.604 35.2192 31.604 39.4515 31.9063 43.6083C31.9819 44.5153 33.3423 45.5733 34.4004 46.1024C35.2318 46.4803 36.441 46.178 37.4991 46.178C47.173 46.0268 46.1149 47.6895 46.1149 37.4109ZM29.0344 78.6008C29.0344 76.7113 28.9588 74.8219 29.0344 72.9325C29.11 70.7407 28.0519 69.9094 26.0113 69.9094C23.2905 69.9094 20.5697 69.9094 17.7733 69.9094C15.7327 69.9094 14.599 70.7407 14.6746 72.9325C14.7502 76.8625 14.7502 80.717 14.6746 84.647C14.6746 86.8388 15.5816 87.6701 17.7733 87.5945C20.4185 87.519 23.0637 87.4434 25.6334 87.5945C28.3542 87.7457 29.1855 86.5365 29.0344 84.0424C28.9588 82.153 29.11 80.4147 29.0344 78.6008ZM29.11 58.0436C29.11 56.0786 29.0344 54.038 29.11 52.073C29.1855 50.0324 28.203 49.2011 26.238 49.2766C23.3661 49.3522 20.5697 49.3522 17.6977 49.2766C15.506 49.2011 14.7502 50.3347 14.7502 52.3753C14.8258 55.3984 14.7502 58.4971 14.7502 61.5202C14.7502 66.8862 14.7502 66.8862 20.1918 66.8862C29.11 66.8862 29.11 66.8862 29.11 58.0436ZM29.0344 37.3354C29.0344 35.3703 28.9588 33.3297 29.0344 31.3647C29.11 29.3241 28.1275 28.4928 26.1624 28.4928C23.2905 28.4928 20.4941 28.4928 17.6222 28.4928C15.4304 28.4928 14.6746 29.6264 14.6746 31.667C14.7502 34.6901 14.6746 37.7888 14.6746 40.8119C14.6746 46.178 14.6746 46.2535 20.1162 46.178C30.5459 46.0268 28.9588 47.6139 29.0344 37.3354ZM48.7602 37.4865C48.7602 39.4515 48.7602 41.4921 48.7602 43.4572C48.7602 45.3466 49.6671 46.1024 51.481 46.1024C54.4285 46.1024 57.376 46.1024 60.3236 46.1024C62.213 46.1024 63.0443 45.1954 63.1199 43.4572C63.1199 39.376 63.2711 35.2192 62.9688 31.138C62.8932 30.1555 61.3061 28.6439 60.3236 28.5683C57.4516 28.1904 54.4285 28.4172 51.481 28.4172C49.4404 28.4172 48.6846 29.4753 48.7602 31.4403C48.8357 33.4809 48.7602 35.5215 48.7602 37.4865ZM48.7602 58.1192C48.7602 60.0842 48.7602 62.1248 48.7602 64.0899C48.7602 65.9037 49.5915 66.8107 51.4054 66.8107C54.3529 66.8107 57.3004 66.8107 60.248 66.8107C62.213 66.8107 63.1199 65.8282 63.1199 63.9387C63.1199 60.9156 63.1199 57.8169 63.1199 54.7938C63.1199 49.2011 63.1199 49.2011 57.6028 49.2766C48.7602 49.2766 48.7602 49.2766 48.7602 58.1192ZM48.7602 77.9206C48.7602 80.6414 48.7602 82.6064 48.7602 84.647C48.6846 86.612 49.5915 87.519 51.6321 87.519C54.3529 87.4434 57.0737 87.4434 59.8701 87.519C62.3641 87.6701 63.2711 86.4609 63.1955 84.118C63.1199 81.1704 63.1955 78.2229 63.1955 75.2754C63.1955 69.8338 63.1955 69.8338 57.7539 69.8338C47.173 69.9093 48.9113 68.7757 48.7602 77.9206Z" fill="white"/>
  </g>
  <mask id="mask3_233_6353" style="mask-type:luminance" maskUnits="userSpaceOnUse" x="0" y="0" width="117" height="127">
    <path d="M116.78 0H0.239258V126.139H116.78V0Z" fill="white"/>
  </mask>
  <g mask="url(#mask3_233_6353)">
    <path d="M38.8598 102.786C28.9592 102.786 18.9829 102.786 9.08222 102.786C5.60564 102.786 3.56505 100.443 4.54756 97.6463C5.37891 95.379 7.19278 94.9255 9.38453 94.9255C21.6281 94.9255 33.8717 94.9255 46.1153 94.9255C53.5219 94.9255 60.9285 94.9255 68.2596 94.9255C71.7361 94.9255 73.6256 96.4371 73.4744 99.0067C73.3988 101.425 71.585 102.71 68.2596 102.786C58.51 102.786 48.6849 102.786 38.8598 102.786Z" fill="white"/>
  </g>
  <mask id="mask4_233_6353" style="mask-type:luminance" maskUnits="userSpaceOnUse" x="0" y="0" width="117" height="127">
    <path d="M116.78 0H0.239258V126.139H116.78V0Z" fill="white"/>
  </mask>
  <g mask="url(#mask4_233_6353)">
    <path d="M60.626 9.29608H17.3955V12.9238H60.626V9.29608Z" fill="white"/>
  </g>
  <mask id="mask5_233_6353" style="mask-type:luminance" maskUnits="userSpaceOnUse" x="0" y="0" width="117" height="127">
    <path d="M116.78 0H0.239258V126.139H116.78V0Z" fill="white"/>
  </mask>
  <g mask="url(#mask5_233_6353)">
    <path d="M31.7552 57.7414C31.9063 47.9919 30.4704 49.3523 40.371 49.2767C41.3535 49.2767 42.2605 49.2767 43.243 49.2767C45.208 49.2012 46.1905 50.1081 46.1905 52.0731C46.1905 56.0787 46.1905 60.0843 46.1905 64.0899C46.1905 66.055 45.208 66.9619 43.243 66.8863C40.371 66.8108 37.5747 66.8108 34.7027 66.8863C32.511 66.9619 31.6796 65.9038 31.7552 63.7876C31.7552 61.747 31.7552 59.782 31.7552 57.7414ZM35.9875 62.5028H41.807V53.5091H35.9875V62.5028Z" fill="#01053A"/>
  </g>
  <mask id="mask6_233_6353" style="mask-type:luminance" maskUnits="userSpaceOnUse" x="0" y="0" width="117" height="127">
    <path d="M116.78 0H0.239258V126.139H116.78V0Z" fill="white"/>
  </mask>
  <g mask="url(#mask6_233_6353)">
    <path d="M31.7551 78.4497C31.9062 69.0025 30.3191 69.9094 40.3709 69.9094C41.3535 69.9094 42.2604 69.9094 43.2429 69.9094C45.1323 69.9094 46.266 70.7408 46.266 72.7058C46.266 76.7114 46.266 80.717 46.266 84.7226C46.266 86.4609 45.5858 87.519 43.6208 87.519C40.5977 87.519 37.499 87.519 34.4759 87.519C32.5864 87.519 31.8307 86.5365 31.8307 84.7982C31.7551 82.682 31.7551 80.5658 31.7551 78.4497ZM41.7313 74.2173H35.9874V83.3622H41.7313V74.2173Z" fill="#01053A"/>
  </g>
  <mask id="mask7_233_6353" style="mask-type:luminance" maskUnits="userSpaceOnUse" x="0" y="0" width="117" height="127">
    <path d="M116.78 0H0.239258V126.139H116.78V0Z" fill="white"/>
  </mask>
  <g mask="url(#mask7_233_6353)">
    <path d="M46.1149 37.411C46.0393 47.6895 47.173 46.1024 37.4234 46.178C36.3654 46.178 35.1561 46.4803 34.3248 46.1024C33.2667 45.6489 31.9063 44.5153 31.8307 43.6083C31.604 39.376 31.604 35.1436 31.8307 30.9869C31.9063 30.0799 33.4178 28.7195 34.3248 28.6439C37.2723 28.3416 40.2198 28.5684 43.1674 28.4928C45.2079 28.4928 46.0393 29.4753 46.0393 31.3647C46.1149 33.4053 46.1149 35.3704 46.1149 37.411ZM35.9875 41.9456H41.7314V32.8763H35.9875V41.9456Z" fill="#01053A"/>
  </g>
  <mask id="mask8_233_6353" style="mask-type:luminance" maskUnits="userSpaceOnUse" x="0" y="0" width="117" height="127">
    <path d="M116.78 0H0.239258V126.139H116.78V0Z" fill="white"/>
  </mask>
  <g mask="url(#mask8_233_6353)">
    <path d="M29.1107 78.6009C29.1107 80.4147 29.0352 82.153 29.1107 83.9669C29.2619 86.461 28.4305 87.6702 25.7097 87.519C23.0645 87.3679 20.4193 87.4435 17.8497 87.519C15.7335 87.5946 14.751 86.6877 14.751 84.5715C14.8266 80.6415 14.8266 76.787 14.751 72.857C14.751 70.6652 15.8091 69.8339 17.8497 69.8339C20.5705 69.8339 23.2913 69.8339 26.0876 69.8339C28.1282 69.8339 29.1863 70.6652 29.1107 72.857C29.0352 74.822 29.0352 76.7114 29.1107 78.6009ZM19.1345 83.4378H24.8784V74.1418H19.1345V83.4378Z" fill="#01053A"/>
  </g>
  <mask id="mask9_233_6353" style="mask-type:luminance" maskUnits="userSpaceOnUse" x="0" y="0" width="117" height="127">
    <path d="M116.78 0H0.239258V126.139H116.78V0Z" fill="white"/>
  </mask>
  <g mask="url(#mask9_233_6353)">
    <path d="M29.1107 58.0437C29.1107 66.8863 29.1107 66.8863 20.1926 66.8863C14.751 66.8863 14.751 66.8863 14.751 61.5203C14.751 58.4972 14.8266 55.3985 14.751 52.3754C14.751 50.3348 15.5068 49.2011 17.6985 49.2767C20.5705 49.3523 23.3668 49.3523 26.2388 49.2767C28.2038 49.2011 29.1863 50.108 29.1107 52.0731C29.0352 54.1137 29.1107 56.0787 29.1107 58.0437ZM19.1345 62.6539H24.8784V53.4335H19.1345V62.6539Z" fill="#01053A"/>
  </g>
  <mask id="mask10_233_6353" style="mask-type:luminance" maskUnits="userSpaceOnUse" x="0" y="0" width="117" height="127">
    <path d="M116.78 0H0.239258V126.139H116.78V0Z" fill="white"/>
  </mask>
  <g mask="url(#mask10_233_6353)">
    <path d="M29.1107 37.3354C28.9596 47.614 30.5467 46.0268 20.1926 46.1024C14.751 46.178 14.751 46.1024 14.751 40.7364C14.751 37.7133 14.751 34.6146 14.751 31.5915C14.751 29.5509 15.5068 28.4172 17.6985 28.4172C20.5705 28.4172 23.3668 28.4172 26.2388 28.4172C28.2038 28.4172 29.1863 29.2486 29.1107 31.2892C29.0352 33.3298 29.0352 35.3704 29.1107 37.3354ZM19.1345 41.9456H24.8784V32.8007H19.1345V41.9456Z" fill="#01053A"/>
  </g>
  <mask id="mask11_233_6353" style="mask-type:luminance" maskUnits="userSpaceOnUse" x="0" y="0" width="117" height="127">
    <path d="M116.78 0H0.239258V126.139H116.78V0Z" fill="white"/>
  </mask>
  <g mask="url(#mask11_233_6353)">
    <path d="M48.76 37.4866C48.76 35.5215 48.8356 33.4809 48.76 31.5159C48.6844 29.5509 49.4402 28.4928 51.4808 28.4928C54.4283 28.4928 57.3759 28.2661 60.3234 28.644C61.3059 28.7951 62.893 30.3067 62.9686 31.2136C63.2709 35.2948 63.1198 39.4516 63.1198 43.5328C63.1198 45.2711 62.2128 46.2536 60.3234 46.178C57.3759 46.1024 54.4283 46.178 51.4808 46.178C49.6669 46.178 48.76 45.3466 48.76 43.5328C48.76 41.4922 48.76 39.5272 48.76 37.4866ZM52.9923 41.9456H58.7362V32.8007H52.9923V41.9456Z" fill="#01053A"/>
  </g>
  <mask id="mask12_233_6353" style="mask-type:luminance" maskUnits="userSpaceOnUse" x="0" y="0" width="117" height="127">
    <path d="M116.78 0H0.239258V126.139H116.78V0Z" fill="white"/>
  </mask>
  <g mask="url(#mask12_233_6353)">
    <path d="M48.7607 58.1192C48.7607 49.2767 48.7607 49.2767 57.6033 49.2767C63.1961 49.2767 63.1961 49.2767 63.1205 54.7938C63.1205 57.8169 63.1205 60.9156 63.1205 63.9387C63.1205 65.9038 62.2136 66.8863 60.2486 66.8107C57.301 66.8107 54.3535 66.8107 51.406 66.8107C49.5921 66.8107 48.7607 65.9037 48.7607 64.0899C48.7607 62.1249 48.7607 60.1598 48.7607 58.1192ZM52.9931 62.5783H58.6614V53.4334H52.9931V62.5783Z" fill="#01053A"/>
  </g>
  <mask id="mask13_233_6353" style="mask-type:luminance" maskUnits="userSpaceOnUse" x="0" y="0" width="117" height="127">
    <path d="M116.78 0H0.239258V126.139H116.78V0Z" fill="white"/>
  </mask>
  <g mask="url(#mask13_233_6353)">
    <path d="M48.7601 77.9207C48.9113 68.7003 47.173 69.9095 57.6783 69.8339C63.1199 69.8339 63.1199 69.8339 63.1199 75.2755C63.1199 78.2231 63.0443 81.1706 63.1199 84.1181C63.1955 86.461 62.3641 87.6702 59.7945 87.5191C57.0737 87.3679 54.3529 87.4435 51.5565 87.5191C49.5159 87.5947 48.6846 86.6877 48.6846 84.6472C48.7601 82.6821 48.7601 80.7171 48.7601 77.9207ZM58.812 74.293H52.9925V83.3623H58.812V74.293Z" fill="#01053A"/>
  </g>
  <mask id="mask14_233_6353" style="mask-type:luminance" maskUnits="userSpaceOnUse" x="0" y="0" width="117" height="127">
    <path d="M116.78 0H0.239258V126.139H116.78V0Z" fill="white"/>
  </mask>
  <g mask="url(#mask14_233_6353)">
    <path d="M41.8073 53.509H35.9878V62.5028H41.8073V53.509Z" fill="white"/>
  </g>
  <mask id="mask15_233_6353" style="mask-type:luminance" maskUnits="userSpaceOnUse" x="0" y="0" width="117" height="127">
    <path d="M116.78 0H0.239258V126.139H116.78V0Z" fill="white"/>
  </mask>
  <g mask="url(#mask15_233_6353)">
    <path d="M41.8074 74.2173H36.0635V83.3622H41.8074V74.2173Z" fill="white"/>
  </g>
  <mask id="mask16_233_6353" style="mask-type:luminance" maskUnits="userSpaceOnUse" x="0" y="0" width="117" height="127">
    <path d="M116.78 0H0.239258V126.139H116.78V0Z" fill="white"/>
  </mask>
  <g mask="url(#mask16_233_6353)">
    <path d="M41.7317 32.8008H35.9878V41.8701H41.7317V32.8008Z" fill="white"/>
  </g>
  <mask id="mask17_233_6353" style="mask-type:luminance" maskUnits="userSpaceOnUse" x="0" y="0" width="117" height="127">
    <path d="M116.78 0H0.239258V126.139H116.78V0Z" fill="white"/>
  </mask>
  <g mask="url(#mask17_233_6353)">
    <path d="M24.8777 74.1417H19.1338V83.4378H24.8777V74.1417Z" fill="white"/>
  </g>
  <mask id="mask18_233_6353" style="mask-type:luminance" maskUnits="userSpaceOnUse" x="0" y="0" width="117" height="127">
    <path d="M116.78 0H0.239258V126.139H116.78V0Z" fill="white"/>
  </mask>
  <g mask="url(#mask18_233_6353)">
    <path d="M24.8777 53.4335H19.1338V62.6539H24.8777V53.4335Z" fill="white"/>
  </g>
  <mask id="mask19_233_6353" style="mask-type:luminance" maskUnits="userSpaceOnUse" x="0" y="0" width="117" height="127">
    <path d="M116.78 0H0.239258V126.139H116.78V0Z" fill="white"/>
  </mask>
  <g mask="url(#mask19_233_6353)">
    <path d="M24.8777 32.8008H19.1338V41.9457H24.8777V32.8008Z" fill="white"/>
  </g>
  <mask id="mask20_233_6353" style="mask-type:luminance" maskUnits="userSpaceOnUse" x="0" y="0" width="117" height="127">
    <path d="M116.78 0H0.239258V126.139H116.78V0Z" fill="white"/>
  </mask>
  <g mask="url(#mask20_233_6353)">
    <path d="M58.7366 32.8008H52.9927V41.9457H58.7366V32.8008Z" fill="white"/>
  </g>
  <mask id="mask21_233_6353" style="mask-type:luminance" maskUnits="userSpaceOnUse" x="0" y="0" width="117" height="127">
    <path d="M116.78 0H0.239258V126.139H116.78V0Z" fill="white"/>
  </mask>
  <g mask="url(#mask21_233_6353)">
    <path d="M58.661 53.4335H52.9927V62.5784H58.661V53.4335Z" fill="white"/>
  </g>
  <mask id="mask22_233_6353" style="mask-type:luminance" maskUnits="userSpaceOnUse" x="0" y="0" width="117" height="127">
    <path d="M116.78 0H0.239258V126.139H116.78V0Z" fill="white"/>
  </mask>
  <g mask="url(#mask22_233_6353)">
    <path d="M58.8122 74.293H52.9927V83.3623H58.8122V74.293Z" fill="white"/>
  </g>
  <mask id="mask23_233_6353" style="mask-type:luminance" maskUnits="userSpaceOnUse" x="0" y="0" width="117" height="127">
    <path d="M116.78 0H0.239258V126.139H116.78V0Z" fill="white"/>
  </mask>
  <g mask="url(#mask23_233_6353)">
    <path d="M62.8933 77.6183C56.318 73.008 52.9926 66.8862 53.1438 58.9506C53.1438 58.1948 52.3124 57.1367 51.5566 56.6833C46.4174 53.6601 45.2837 48.7476 48.6091 43.835C49.3649 42.7014 49.8184 41.4166 50.1962 40.1317C53.5217 29.6264 63.1956 22.5221 74.0788 22.7489C84.7353 22.9756 94.1825 30.3066 97.2056 40.8119C97.5079 42.0212 98.0369 43.1548 98.7171 44.2129C101.74 48.7476 100.531 53.9625 95.7696 56.6833C95.0138 57.1367 93.9557 58.0436 94.0313 58.7994C94.1825 66.8107 90.9326 73.0836 84.3574 77.6938C85.4154 80.6414 87.5316 82.3041 90.328 82.3041C103.403 82.0774 114.437 93.6407 116.251 108.001C116.629 111.024 116.478 114.122 116.705 117.145C116.931 119.942 115.722 121.756 113.077 122.285C107.862 123.418 102.572 124.703 97.2811 125.157C78.689 126.668 60.1725 126.819 41.656 124.174C30.8484 122.663 30.0926 121.831 30.6216 111.024C31.0751 101.274 34.9295 93.0361 42.7896 86.9899C46.6441 83.9668 51.1032 82.4552 56.0157 82.3797C59.1144 82.2285 61.4573 80.8681 62.8933 77.6183ZM61.6841 122.285C63.2712 114.198 64.6316 106.942 65.992 99.7625C66.1431 99.0068 66.2943 98.3266 66.2187 97.5708C66.0676 93.3384 65.4629 89.3328 60.3992 88.1236C59.719 87.9724 59.0388 87.519 58.4342 87.2166C55.8646 85.7807 53.5217 86.4609 50.2718 87.7457C51.6322 88.8038 52.5392 89.484 53.3705 90.2397C55.5623 92.2803 57.754 94.2454 59.719 96.4371C60.3992 97.1929 60.2481 98.5533 60.4748 99.687C59.2656 99.5358 58.0563 99.6114 56.9227 99.2335C56.0913 98.9312 55.5623 97.9487 54.8821 97.344C52.0857 94.6988 49.2893 91.978 46.4929 89.4084C37.4236 95.1523 33.7959 106.187 34.6272 116.692C34.7028 117.448 35.7609 118.581 36.5167 118.733C44.8302 120.017 53.1438 121.151 61.6841 122.285ZM95.9963 87.3678C91.3861 84.7982 87.6072 87.6701 83.8283 89.7107C82.9214 90.2398 81.7877 91.5246 81.7877 92.4315C81.6366 96.0592 81.4854 99.7626 82.0145 103.315C82.9214 109.437 84.2062 115.483 85.491 122.058C92.6709 121.227 99.5485 120.773 106.275 119.639C114.211 118.279 112.775 119.035 112.548 111.704C112.321 102.483 108.618 94.7744 100.758 89.1817C97.3567 92.4315 94.0313 95.7569 90.5547 98.78C89.7234 99.5358 88.0607 99.3847 86.8514 99.687C87.1537 98.4021 87.0782 96.8906 87.8339 95.9837C90.328 93.0361 93.2 90.2398 95.9963 87.3678ZM57.4517 57.5902C56.7715 64.6945 59.19 70.1361 65.0095 73.915C70.6778 77.5427 77.8577 77.2404 83.1481 73.3103C88.363 69.3803 90.4036 64.0899 89.7234 57.5902H57.4517ZM73.3986 53.3578V53.4334C79.0669 53.4334 84.8108 53.4334 90.4792 53.4334C94.258 53.4334 96.3742 51.8463 96.2986 49.1255C96.2231 46.4803 94.1825 44.9687 90.6303 44.9687C79.1425 44.9687 67.5791 44.9687 56.0913 44.9687C52.7659 44.9687 50.8009 46.5558 50.8009 49.1255C50.7253 51.7707 52.6147 53.3578 55.9401 53.3578C61.8352 53.3578 67.6547 53.3578 73.3986 53.3578ZM83.2237 29.3241C83.2237 31.8182 83.4504 33.7832 83.1481 35.5971C82.997 36.5796 81.8633 37.4109 81.2587 38.2423C80.5785 37.3354 79.5204 36.504 79.3692 35.5215C79.0669 33.5565 79.4448 31.5159 79.2181 29.5509C78.8402 25.6964 75.5904 27.0568 73.5498 27.0568C71.5847 27.0568 68.2593 25.6964 67.957 29.6264C67.8059 31.5915 68.1082 33.6321 67.8058 35.5971C67.6547 36.5796 66.521 37.4109 65.8408 38.2423C65.1606 37.3354 64.027 36.504 63.8758 35.5215C63.5735 33.6321 63.8002 31.7426 63.8002 29.3997C58.9633 32.2716 56.0913 35.8238 54.4286 40.6608H92.7465C91.0082 35.8238 88.0607 32.2716 83.2237 29.3241ZM65.992 121.831H81.1831C80.125 116.012 79.1425 110.57 78.0844 105.129C77.0263 99.5358 77.0263 99.4602 71.2824 99.8381C70.9045 99.8381 70.5266 100.065 70.0732 100.216C68.7128 107.32 67.3524 114.349 65.992 121.831ZM63.0445 84.4958C68.4105 88.5015 79.1425 88.4259 83.9795 84.5714C82.09 80.3391 78.9913 79.1298 74.4567 80.3391C72.6428 80.8681 70.5266 79.9612 68.5616 79.8856C67.7303 79.8856 66.6722 80.2635 65.992 80.7925C64.8583 81.9262 64.027 83.2866 63.0445 84.4958ZM70.2243 95.4546H76.9508C77.1775 94.0186 77.4042 92.7338 77.6309 91.449H69.4686C69.7709 92.885 69.9976 94.0942 70.2243 95.4546Z" fill="#01053A"/>
  </g>
  <mask id="mask24_233_6353" style="mask-type:luminance" maskUnits="userSpaceOnUse" x="0" y="0" width="117" height="127">
    <path d="M116.78 0H0.239258V126.139H116.78V0Z" fill="white"/>
  </mask>
  <g mask="url(#mask24_233_6353)">
    <path d="M61.6835 122.285C53.1432 121.075 44.8297 119.942 36.5161 118.657C35.7604 118.506 34.7023 117.372 34.6267 116.616C33.7953 106.187 37.4231 95.1523 46.4924 89.3328C49.2132 91.9025 52.0096 94.6233 54.8815 97.2685C55.5617 97.9487 56.1663 98.8556 56.9221 99.1579C57.9802 99.5358 59.265 99.4602 60.4743 99.6114C60.2475 98.4777 60.3987 97.1173 59.7185 96.3615C57.7535 94.1698 55.5617 92.2048 53.37 90.1642C52.5386 89.4084 51.5561 88.7282 50.2713 87.6701C53.4455 86.4609 55.864 85.7051 58.4337 87.1411C59.0383 87.5189 59.7185 87.8968 60.3987 88.048C65.4624 89.2572 66.067 93.2629 66.2182 97.4952C66.2182 98.251 66.067 98.9312 65.9914 99.687C64.631 107.018 63.1951 114.273 61.6835 122.285Z" fill="white"/>
  </g>
  <mask id="mask25_233_6353" style="mask-type:luminance" maskUnits="userSpaceOnUse" x="0" y="0" width="117" height="127">
    <path d="M116.78 0H0.239258V126.139H116.78V0Z" fill="white"/>
  </mask>
  <g mask="url(#mask25_233_6353)">
    <path d="M95.9965 87.3677C93.2757 90.2397 90.4038 93.0361 87.7586 96.0592C87.0028 96.9661 87.0784 98.4776 86.776 99.7625C88.0609 99.4602 89.648 99.6113 90.4793 98.8555C93.9559 95.8324 97.2058 92.507 100.682 89.2572C108.542 94.8499 112.246 102.559 112.472 111.779C112.624 119.11 114.135 118.355 106.2 119.715C99.4731 120.849 92.5955 121.302 85.4156 122.133C84.2064 115.558 82.846 109.512 81.9391 103.39C81.41 99.838 81.5612 96.1347 81.7123 92.507C81.7879 91.5245 82.846 90.2397 83.7529 89.7862C87.6074 87.67 91.3863 84.7981 95.9965 87.3677Z" fill="white"/>
  </g>
  <mask id="mask26_233_6353" style="mask-type:luminance" maskUnits="userSpaceOnUse" x="0" y="0" width="117" height="127">
    <path d="M116.78 0H0.239258V126.139H116.78V0Z" fill="white"/>
  </mask>
  <g mask="url(#mask26_233_6353)">
    <path d="M57.4525 57.5901H89.6486C90.3288 64.0898 88.2882 69.3803 83.0734 73.3103C77.7829 77.3159 70.603 77.5426 64.9347 73.9149C59.1908 70.136 56.7723 64.6945 57.4525 57.5901Z" fill="white"/>
  </g>
  <mask id="mask27_233_6353" style="mask-type:luminance" maskUnits="userSpaceOnUse" x="0" y="0" width="117" height="127">
    <path d="M116.78 0H0.239258V126.139H116.78V0Z" fill="white"/>
  </mask>
  <g mask="url(#mask27_233_6353)">
    <path d="M73.3983 53.3579C67.5788 53.3579 61.7593 53.3579 55.9398 53.3579C52.6144 53.3579 50.7249 51.7707 50.8005 49.1255C50.8761 46.5559 52.7655 44.9688 56.091 44.9688C67.5788 44.9688 79.1422 44.9688 90.63 44.9688C94.1821 44.9688 96.2227 46.4803 96.2983 49.1255C96.3739 51.8463 94.2577 53.4335 90.4788 53.4335C84.8105 53.4335 79.0666 53.4335 73.3983 53.4335V53.3579Z" fill="white"/>
  </g>
  <mask id="mask28_233_6353" style="mask-type:luminance" maskUnits="userSpaceOnUse" x="0" y="0" width="117" height="127">
    <path d="M116.78 0H0.239258V126.139H116.78V0Z" fill="white"/>
  </mask>
  <g mask="url(#mask28_233_6353)">
    <path d="M83.2238 29.3241C88.0608 32.2717 91.0083 35.7483 92.7466 40.7364H54.4287C56.0914 35.8238 58.9634 32.3473 63.8003 29.4753C63.8003 31.8182 63.5736 33.7832 63.8759 35.5971C64.0271 36.5796 65.1607 37.411 65.8409 38.3179C66.5211 37.411 67.6548 36.5796 67.806 35.6727C68.1083 33.7077 67.806 31.6671 67.9571 29.702C68.2594 25.772 71.5849 27.1324 73.5499 27.1324C75.5149 27.1324 78.7647 25.8476 79.2182 29.6265C79.4449 31.5915 79.067 33.6321 79.3694 35.5971C79.5205 36.5796 80.5786 37.411 81.2588 38.3179C81.939 37.411 82.9971 36.6552 83.1482 35.6727C83.4506 33.7832 83.2238 31.8938 83.2238 29.3241Z" fill="white"/>
  </g>
  <mask id="mask29_233_6353" style="mask-type:luminance" maskUnits="userSpaceOnUse" x="0" y="0" width="117" height="127">
    <path d="M116.78 0H0.239258V126.139H116.78V0Z" fill="white"/>
  </mask>
  <g mask="url(#mask29_233_6353)">
    <path d="M65.9922 121.831C67.4282 114.349 68.713 107.32 70.0734 100.216C70.5268 100.065 70.9047 99.8383 71.2826 99.8383C77.0265 99.4604 77.0265 99.4604 78.0846 105.129C79.1427 110.57 80.1252 116.087 81.1833 121.831H65.9922Z" fill="white"/>
  </g>
  <mask id="mask30_233_6353" style="mask-type:luminance" maskUnits="userSpaceOnUse" x="0" y="0" width="117" height="127">
    <path d="M116.78 0H0.239258V126.139H116.78V0Z" fill="white"/>
  </mask>
  <g mask="url(#mask30_233_6353)">
    <path d="M63.0444 84.4958C64.0269 83.2865 64.8583 81.9262 65.992 80.8681C66.5966 80.2634 67.6547 79.8855 68.5616 79.9611C70.5266 79.9611 72.7184 80.8681 74.4567 80.4146C78.9913 79.2053 82.0144 80.4146 83.9795 84.6469C79.1425 88.4258 68.4105 88.5014 63.0444 84.4958Z" fill="white"/>
  </g>
  <mask id="mask31_233_6353" style="mask-type:luminance" maskUnits="userSpaceOnUse" x="0" y="0" width="117" height="127">
    <path d="M116.78 0H0.239258V126.139H116.78V0Z" fill="white"/>
  </mask>
  <g mask="url(#mask31_233_6353)">
    <path d="M70.224 95.4547C69.9973 94.0943 69.7706 92.8851 69.4683 91.4491H77.5551C77.3283 92.8095 77.1016 94.0943 76.8749 95.4547H70.224Z" fill="white"/>
  </g>
</svg>