<svg xmlns="http://www.w3.org/2000/svg" width="105" height="119" viewBox="0 0 105 119" fill="none">
  <mask id="mask0_233_6269" style="mask-type:luminance" maskUnits="userSpaceOnUse" x="0" y="0" width="106" height="119">
    <path d="M105.001 0H0.541016V118.558H105.001V0Z" fill="white"/>
  </mask>
  <g mask="url(#mask0_233_6269)">
    <path d="M97.9094 113.742C99.4855 113.742 100.887 113.479 102.112 113.829C103.076 114.092 103.776 115.23 104.652 115.931C103.776 116.719 102.988 117.682 102.025 118.382C101.499 118.733 100.624 118.47 99.8358 118.47C68.4014 118.47 36.9671 118.47 5.44512 118.47C4.91975 118.47 4.30682 118.645 3.95657 118.47C2.81828 117.682 1.76756 116.806 0.629267 115.931C1.68 115.23 2.73072 114.267 3.95657 113.829C4.83218 113.479 5.88292 113.742 7.19634 113.742V42.9925C6.93365 42.8174 6.75852 42.5547 6.5834 42.5547C-0.0712312 42.4671 0.979532 42.0293 0.541727 35.9001C0.191484 31.1718 1.94266 28.7201 5.97046 26.4435C20.418 18.3003 34.778 9.71934 49.0505 1.22593C51.7648 -0.437725 53.7788 -0.350164 56.4056 1.22593C61.8344 4.55325 67.4383 7.53032 73.6551 11.0328C72.5168 5.16617 75.8441 5.25374 79.5217 5.42886C82.0609 5.60398 84.6878 5.60398 87.2271 5.42886C90.5544 5.16617 91.5175 6.74227 91.3424 9.8069C91.1673 12.8715 91.0797 15.9362 91.43 19.0008C91.6051 20.4018 92.6558 21.9779 93.7065 23.0286C95.0199 24.2545 96.6836 25.2176 98.3473 25.9181C103.951 28.0196 105.352 32.0474 104.914 37.7388C104.652 41.4164 103.601 42.9925 99.9234 42.5547C99.398 42.4671 98.7851 42.6423 97.997 42.8174V113.742H97.9094ZM92.9185 113.567V42.6423H12.5375V113.567H38.0178V109.451C38.0178 101.045 38.1054 92.552 38.0178 84.1461C38.0178 81.3442 38.8934 80.1183 41.7829 80.1183C49.138 80.2059 56.4931 80.2059 63.7607 80.1183C66.3875 80.1183 67.4382 81.2566 67.4382 83.8834C67.3507 89.6625 67.4382 95.3539 67.4382 101.133C67.4382 105.248 67.4382 109.364 67.4382 113.567H92.9185ZM99.8358 33.4484C97.8219 33.4484 96.2458 33.4484 94.6697 33.4484C86.8768 33.4484 78.9963 33.5359 71.2034 33.3608C70.1526 33.3608 69.1019 31.9598 68.0512 31.1718C69.1019 30.3837 69.9775 29.1579 71.1158 28.8952C73.1297 28.5449 75.2312 28.8076 77.3326 28.8076C82.4112 28.8076 87.4022 28.8076 92.4807 28.8076C91.9553 27.6693 91.43 27.144 90.817 26.9688C87.4022 25.5679 86.1763 23.2037 86.5265 19.4386C86.8768 16.4615 86.6141 13.3969 86.6141 10.2447H78.471C78.3834 11.1203 78.2958 11.9084 78.2082 12.6089C78.0331 17.8625 76.9824 18.4754 72.3417 15.8486C66.7378 12.6964 60.9587 9.54422 55.4424 6.21691C53.3409 4.99105 51.8524 5.07861 49.8385 6.30447C38.1929 13.3093 26.4597 20.1391 14.7266 26.9688C14.1136 27.3191 13.5883 27.8445 12.2749 28.8076C14.3763 28.8076 15.6022 28.8076 16.828 28.8076C30.0497 28.8076 43.2714 28.8076 56.4931 28.8076C57.4563 28.8076 58.5946 28.5449 59.3826 28.8952C60.4334 29.4206 61.2214 30.3837 62.0971 31.1718C61.1339 31.8723 60.2583 32.8354 59.2076 33.3608C58.3319 33.711 57.2812 33.4484 56.318 33.4484C40.6446 33.4484 24.9712 33.4484 9.29782 33.4484C7.98441 33.4484 6.75854 33.4484 5.18245 33.4484C5.35757 35.1996 5.4451 36.3379 5.53266 37.4762H99.7483V33.4484H99.8358ZM62.4473 85.0217H42.8336V113.479H62.4473V85.0217Z" fill="#01053A"/>
  </g>
  <mask id="mask1_233_6269" style="mask-type:luminance" maskUnits="userSpaceOnUse" x="0" y="0" width="106" height="119">
    <path d="M105.001 0H0.541016V118.558H105.001V0Z" fill="white"/>
  </mask>
  <g mask="url(#mask1_233_6269)">
    <path d="M92.9182 113.567H67.3504C67.3504 109.364 67.3504 105.248 67.3504 101.133C67.3504 95.3539 67.2629 89.6624 67.3504 83.8834C67.438 81.2566 66.3872 80.1183 63.6729 80.1183C56.3177 80.2058 48.9626 80.2058 41.6951 80.1183C38.8056 80.1183 37.8424 81.3441 37.9299 84.1461C38.0175 92.5519 37.9299 101.045 37.9299 109.451V113.567H12.4497V42.6422H92.8306V113.567H92.9182ZM43.2712 61.4678C43.2712 58.3156 43.2711 55.0759 43.3587 51.9237C43.4463 49.472 42.4831 48.3337 39.9439 48.3337C33.9897 48.4212 27.948 48.4212 21.9939 48.3337C19.4546 48.3337 18.4914 49.5595 18.4914 51.9237C18.4914 58.3156 18.4914 64.62 18.4914 71.0119C18.4914 73.4637 19.4546 74.6019 21.9939 74.6019C27.948 74.5144 33.9897 74.5144 39.9439 74.6019C42.5707 74.6019 43.3587 73.4637 43.2712 71.0119C43.1836 67.7722 43.2712 64.62 43.2712 61.4678ZM86.789 61.4678C86.789 58.3156 86.7014 55.0759 86.789 51.9237C86.8765 49.472 85.9133 48.3337 83.3741 48.3337C77.4199 48.4212 71.3782 48.4212 65.4241 48.3337C62.8848 48.3337 62.0092 49.5595 62.0092 51.9237C62.0967 58.2281 62.0967 64.62 62.0092 71.0119C62.0092 73.4637 62.8848 74.6019 65.4241 74.6019C71.3782 74.5144 77.4199 74.5144 83.3741 74.6019C85.9133 74.6019 86.8765 73.3761 86.789 71.0119C86.789 67.7722 86.789 64.62 86.789 61.4678Z" fill="white"/>
  </g>
  <mask id="mask2_233_6269" style="mask-type:luminance" maskUnits="userSpaceOnUse" x="0" y="0" width="106" height="119">
    <path d="M105.001 0H0.541016V118.558H105.001V0Z" fill="white"/>
  </mask>
  <g mask="url(#mask2_233_6269)">
    <path d="M99.8358 33.4483V37.4761H5.62028C5.53272 36.4254 5.44514 35.2871 5.27002 33.4483C6.84612 33.4483 8.07198 33.4483 9.38539 33.4483C25.0588 33.4483 40.7322 33.4483 56.4056 33.4483C57.3688 33.4483 58.5071 33.711 59.2951 33.3608C60.3459 32.9229 61.2215 31.9598 62.1846 31.1717C61.309 30.3837 60.521 29.333 59.4703 28.8951C58.6822 28.5449 57.5439 28.8076 56.5808 28.8076C43.3591 28.8076 30.1373 28.8076 16.9156 28.8076C15.6898 28.8076 14.5515 28.8076 12.3625 28.8076C13.6759 27.8444 14.2013 27.319 14.8142 26.9688C26.5473 20.0515 38.2805 13.2217 49.9261 6.30443C51.94 5.07858 53.4286 4.99102 55.53 6.21687C61.0464 9.54418 66.7378 12.6964 72.4293 15.8486C77.07 18.4754 78.1207 17.95 78.2959 12.6088C78.2959 11.9083 78.471 11.2078 78.5585 10.2447H86.7017C86.7017 13.3969 86.9644 16.4615 86.6141 19.4386C86.1763 23.1161 87.4022 25.5678 90.9046 26.9688C91.5175 27.2315 92.1305 27.6693 92.5683 28.8076C87.4897 28.8076 82.4988 28.8076 77.4202 28.8076C75.3188 28.8076 73.2173 28.5449 71.2034 28.8951C70.0651 29.0703 69.1895 30.3837 68.1388 31.1717C69.1895 31.9598 70.1527 33.3608 71.291 33.3608C79.0839 33.5359 86.9644 33.4483 94.7573 33.4483C96.2458 33.4483 97.8219 33.4483 99.8358 33.4483Z" fill="white"/>
  </g>
  <mask id="mask3_233_6269" style="mask-type:luminance" maskUnits="userSpaceOnUse" x="0" y="0" width="106" height="119">
    <path d="M105.001 0H0.541016V118.558H105.001V0Z" fill="white"/>
  </mask>
  <g mask="url(#mask3_233_6269)">
    <path d="M62.4471 113.567H42.8335V85.0217H62.4471V113.567ZM54.9169 98.2434C54.9169 98.8563 54.7418 99.5568 54.9169 100.082C55.5298 101.308 56.4054 102.446 57.1059 103.672C57.894 102.534 59.0323 101.571 59.4701 100.345C59.9079 99.119 59.8203 97.6304 59.4701 96.4046C59.1198 95.2663 58.0691 94.2156 57.3686 93.1648C56.5805 94.3031 55.6174 95.3539 55.0044 96.4921C54.7418 96.93 54.9169 97.6304 54.9169 98.2434Z" fill="white"/>
  </g>
  <mask id="mask4_233_6269" style="mask-type:luminance" maskUnits="userSpaceOnUse" x="0" y="0" width="106" height="119">
    <path d="M105.001 0H0.541016V118.558H105.001V0Z" fill="white"/>
  </mask>
  <g mask="url(#mask4_233_6269)">
    <path d="M43.2709 61.4679C43.2709 64.6201 43.1834 67.8598 43.2709 71.012C43.3585 73.4637 42.4829 74.602 39.9436 74.602C33.9895 74.5145 27.9478 74.5145 21.9936 74.602C19.4544 74.602 18.4912 73.4637 18.4912 71.012C18.4912 64.6201 18.4912 58.3157 18.4912 51.9237C18.4912 49.5596 19.4544 48.3337 21.9936 48.3337C27.9478 48.4213 33.9895 48.4213 39.9436 48.3337C42.4829 48.3337 43.446 49.3845 43.3585 51.9237C43.2709 55.0759 43.3585 58.2281 43.2709 61.4679ZM33.6392 53.3247V70.9245C35.8283 69.7862 38.4551 69.1732 38.5426 68.2976C38.9804 63.3942 38.7178 58.4032 38.7178 53.3247H33.6392ZM28.3856 53.3247H23.6573V69.6986H28.3856V53.3247Z" fill="#01053A"/>
  </g>
  <mask id="mask5_233_6269" style="mask-type:luminance" maskUnits="userSpaceOnUse" x="0" y="0" width="106" height="119">
    <path d="M105.001 0H0.541016V118.558H105.001V0Z" fill="white"/>
  </mask>
  <g mask="url(#mask5_233_6269)">
    <path d="M86.7891 61.4678C86.7891 64.62 86.7891 67.8598 86.7891 71.012C86.8766 73.3761 85.9134 74.602 83.3742 74.602C77.42 74.5144 71.3783 74.5144 65.4242 74.602C62.8849 74.602 62.0093 73.4637 62.0093 71.012C62.0968 64.7076 62.0968 58.3156 62.0093 51.9237C62.0093 49.5596 62.7973 48.2461 65.4242 48.3337C71.3783 48.4213 77.42 48.4213 83.3742 48.3337C85.9134 48.3337 86.8766 49.472 86.7891 51.9237C86.7891 55.0759 86.7891 58.3156 86.7891 61.4678ZM71.7286 53.4122H66.9127V69.7861H71.7286V53.4122ZM77.0698 53.3247V69.9613C78.9085 69.8737 80.4846 69.7861 81.8856 69.6986V53.3247H77.0698Z" fill="#01053A"/>
  </g>
  <mask id="mask6_233_6269" style="mask-type:luminance" maskUnits="userSpaceOnUse" x="0" y="0" width="106" height="119">
    <path d="M105.001 0H0.541016V118.558H105.001V0Z" fill="white"/>
  </mask>
  <g mask="url(#mask6_233_6269)">
    <path d="M54.9167 98.2434C54.9167 97.6305 54.7416 96.93 55.0042 96.4922C55.7047 95.2664 56.5803 94.2156 57.3684 93.1649C58.0689 94.2156 59.1196 95.1788 59.4699 96.4047C59.8201 97.6305 59.9077 99.1191 59.4699 100.345C59.0321 101.571 57.8938 102.621 57.1057 103.672C56.4052 102.534 55.5296 101.396 54.9167 100.082C54.7416 99.5569 54.9167 98.8564 54.9167 98.2434Z" fill="#01053A"/>
  </g>
  <mask id="mask7_233_6269" style="mask-type:luminance" maskUnits="userSpaceOnUse" x="0" y="0" width="106" height="119">
    <path d="M105.001 0H0.541016V118.558H105.001V0Z" fill="white"/>
  </mask>
  <g mask="url(#mask7_233_6269)">
    <path d="M33.6387 53.3247H38.7172C38.7172 58.4032 38.8923 63.3942 38.5421 68.2976C38.4545 69.1732 35.8277 69.8737 33.6387 70.9245V53.3247Z" fill="white"/>
  </g>
  <mask id="mask8_233_6269" style="mask-type:luminance" maskUnits="userSpaceOnUse" x="0" y="0" width="106" height="119">
    <path d="M105.001 0H0.541016V118.558H105.001V0Z" fill="white"/>
  </mask>
  <g mask="url(#mask8_233_6269)">
    <path d="M28.386 53.3247H23.6577V69.6986H28.386V53.3247Z" fill="white"/>
  </g>
  <mask id="mask9_233_6269" style="mask-type:luminance" maskUnits="userSpaceOnUse" x="0" y="0" width="106" height="119">
    <path d="M105.001 0H0.541016V118.558H105.001V0Z" fill="white"/>
  </mask>
  <g mask="url(#mask9_233_6269)">
    <path d="M71.7284 53.4122H66.9126V69.7861H71.7284V53.4122Z" fill="white"/>
  </g>
  <mask id="mask10_233_6269" style="mask-type:luminance" maskUnits="userSpaceOnUse" x="0" y="0" width="106" height="119">
    <path d="M105.001 0H0.541016V118.557H105.001V0Z" fill="white"/>
  </mask>
  <g mask="url(#mask10_233_6269)">
    <path d="M77.0698 53.3247H81.8857V69.6986C80.4847 69.7862 78.9962 69.8737 77.0698 69.9613V53.3247Z" fill="white"/>
  </g>
</svg>