<svg xmlns="http://www.w3.org/2000/svg" width="136" height="106" viewBox="0 0 136 106" fill="none">
  <mask id="mask0_233_6315" style="mask-type:luminance" maskUnits="userSpaceOnUse" x="0" y="0" width="136" height="106">
    <path d="M135.807 0H0V105.598H135.807V0Z" fill="white"/>
  </mask>
  <g mask="url(#mask0_233_6315)">
    <path d="M80.9064 61.8181C97.0176 69.5234 100.345 83.7958 99.0315 100.345C102.797 100.345 105.861 100.082 108.926 100.432C110.414 100.608 111.728 102.009 113.041 102.884C111.728 103.76 110.414 105.511 109.101 105.511C81.6069 105.686 54.0252 105.686 26.5311 105.511C25.2176 105.511 23.9042 103.847 22.5908 102.884C23.9918 102.009 25.2177 100.608 26.7062 100.432C29.7708 100.082 32.8355 100.345 35.3747 100.345C36.6882 92.5519 37.2135 84.8466 39.315 77.7542C41.5916 70.2239 47.7208 65.3205 54.6382 61.8181C53.4123 58.841 52.4491 56.1266 51.2233 53.4998C50.7855 52.6242 49.472 52.0988 48.684 51.3107C47.0203 49.6471 44.3935 48.1586 43.9557 46.1447C43.5179 44.3934 45.2691 41.9417 46.3199 39.9278C47.0204 38.6144 48.5089 37.7388 49.3845 36.5129C58.4908 23.7291 77.1413 23.8166 86.1601 36.6881C86.9481 37.8263 88.3491 38.4393 89.0496 39.5776C90.2754 41.5915 92.2018 44.0432 91.8515 45.9695C91.5889 47.8959 88.8744 49.472 87.2108 51.1356C86.2476 52.0988 85.0218 52.8868 84.4089 54.0251C83.0955 56.4768 82.1323 59.0161 80.9064 61.8181ZM53.7625 86.8605H81.9571C81.9571 81.7819 81.9571 77.0537 81.9571 72.3254C81.9571 68.0349 78.192 65.4081 73.814 65.8459C69.8737 66.2837 65.8459 66.1961 61.8181 65.8459C58.4032 65.5832 53.8501 67.7722 53.7625 70.6617C53.675 75.9154 53.7625 81.2566 53.7625 86.8605ZM87.4735 73.8139C87.4735 79.3303 87.2984 83.5332 87.561 87.7361C87.7362 91.4137 86.2476 92.7271 82.5701 92.7271C73.1135 92.5519 63.6569 92.7271 54.2003 92.6395C48.5089 92.6395 48.2462 92.3768 48.2462 86.6854C48.2462 82.7451 48.2462 78.8049 48.2462 73.8139C42.2045 81.5193 40.3657 91.6763 42.7298 100.082H93.5152C93.953 90.9759 94.6535 82.2198 87.4735 73.8139ZM59.1037 35.7249C58.7535 35.5498 58.4032 35.3747 58.053 35.1995C55.1635 38.6144 52.3616 42.0293 49.3845 45.5317H86.0725C83.183 42.0293 80.381 38.702 76.8786 34.499C76.791 37.2134 77.0538 38.702 76.5284 39.8403C76.003 41.1537 74.6896 42.2044 73.7264 43.3427C72.8508 42.1168 71.4498 40.9786 71.1871 39.6651C70.7493 37.5637 71.0996 35.2871 71.0996 32.9229H64.7077C64.7077 35.4622 64.9703 37.9139 64.6201 40.1905C64.3574 41.4163 62.8689 42.3795 61.9932 43.4303C61.0301 42.3795 59.7167 41.5039 59.2789 40.2781C58.7535 38.8771 59.1037 37.2134 59.1037 35.7249ZM56.652 51.661C58.2281 58.3156 62.6062 61.7305 68.3852 61.4678C73.9015 61.2051 78.0169 57.3524 78.7174 51.661H56.652Z" fill="#01053A"/>
  </g>
  <mask id="mask1_233_6315" style="mask-type:luminance" maskUnits="userSpaceOnUse" x="0" y="0" width="136" height="106">
    <path d="M135.807 0H0V105.598H135.807V0Z" fill="white"/>
  </mask>
  <g mask="url(#mask1_233_6315)">
    <path d="M48.5081 32.8353L44.1301 38.5268C44.1301 38.5268 29.7701 38.7019 23.9911 38.5268C20.1384 38.4392 17.1613 41.3287 17.0737 45.1814C17.0737 49.9097 17.0737 54.7256 17.0737 59.9792C23.991 59.9792 30.383 59.9792 36.8625 59.9792C38.0883 59.9792 39.5769 59.629 40.6276 60.0668C42.0286 60.6797 43.1669 61.9056 44.4803 62.8687C43.2544 63.7443 42.0286 65.2329 40.7152 65.3204C34.6735 65.5831 28.5442 65.4956 22.5025 65.408C10.0689 65.3204 11.5574 66.8965 11.4698 54.3753C11.4698 52.0987 11.4698 49.8222 11.4698 46.4948C4.46494 54.9882 4.99033 63.7443 5.42814 73.1133C8.58033 73.1133 11.6449 73.1133 14.7096 73.1133C20.4886 73.1133 26.2676 73.0258 32.0466 73.2885C33.1849 73.376 34.1481 74.8646 35.1989 75.7402C34.3232 76.6158 33.4476 78.2794 32.572 78.367C22.5901 78.5421 12.5206 78.5421 2.53864 78.367C1.57547 78.367 -0.175781 76.4407 -0.175781 75.4775C-0.0882203 68.9104 -0.350871 62.1682 0.787421 55.6887C2.27596 47.2829 7.52959 40.9785 14.8847 36.4253C15.9354 35.8124 16.9862 35.1119 17.8618 34.5865C20.2259 33.0104 20.7513 33.6234 22.5025 32.8353H48.5081Z" fill="#01053A"/>
  </g>
  <mask id="mask2_233_6315" style="mask-type:luminance" maskUnits="userSpaceOnUse" x="0" y="0" width="136" height="106">
    <path d="M135.807 0H0V105.598H135.807V0Z" fill="white"/>
  </mask>
  <g mask="url(#mask2_233_6315)">
    <path d="M53.7625 86.8604C53.7625 81.2565 53.675 75.9153 53.7625 70.6616C53.8501 67.8597 58.4032 65.5831 61.8181 65.8458C65.7584 66.196 69.7862 66.2836 73.814 65.8458C78.192 65.408 81.9571 68.0348 81.9571 72.3253C81.9571 77.0536 81.9571 81.8694 81.9571 86.8604H53.7625Z" fill="white"/>
  </g>
  <mask id="mask3_233_6315" style="mask-type:luminance" maskUnits="userSpaceOnUse" x="0" y="0" width="136" height="106">
    <path d="M135.807 0H0V105.598H135.807V0Z" fill="white"/>
  </mask>
  <g mask="url(#mask3_233_6315)">
    <path d="M87.4735 73.814C94.6535 82.2198 93.9529 91.0635 93.5151 100.082C76.4408 100.082 59.5415 100.082 42.7298 100.082C40.3657 91.6764 42.2044 81.4318 48.2461 73.814C48.2461 78.8049 48.2461 82.7452 48.2461 86.6854C48.2461 92.3769 48.5089 92.6396 54.2003 92.6396C63.6569 92.6396 73.1134 92.552 82.57 92.7271C86.2476 92.8147 87.7361 91.4137 87.561 87.7361C87.2983 83.4457 87.4735 79.2427 87.4735 73.814Z" fill="white"/>
  </g>
  <mask id="mask4_233_6315" style="mask-type:luminance" maskUnits="userSpaceOnUse" x="0" y="0" width="136" height="106">
    <path d="M135.807 0H0V105.598H135.807V0Z" fill="white"/>
  </mask>
  <g mask="url(#mask4_233_6315)">
    <path d="M59.1042 35.7249C59.1042 37.2134 58.7539 38.877 59.1917 40.1904C59.6295 41.4163 60.943 42.2919 61.9062 43.3426C62.8693 42.2919 64.3579 41.3288 64.533 40.1029C64.9708 37.8263 64.6205 35.3746 64.6205 32.8353H71.0125C71.0125 35.1995 70.6623 37.4761 71.1001 39.5775C71.3627 40.8909 72.7637 42.0292 73.6393 43.2551C74.6025 42.1168 75.8283 41.066 76.4413 39.7526C76.9666 38.6143 76.6164 37.1258 76.7915 34.4114C80.294 38.6144 83.0959 41.9417 85.9854 45.4441H49.2974C52.1869 41.9417 55.0764 38.5268 57.9659 35.1119C58.4037 35.3746 58.754 35.5497 59.1042 35.7249Z" fill="white"/>
  </g>
  <mask id="mask5_233_6315" style="mask-type:luminance" maskUnits="userSpaceOnUse" x="0" y="0" width="136" height="106">
    <path d="M135.807 0H0V105.598H135.807V0Z" fill="white"/>
  </mask>
  <g mask="url(#mask5_233_6315)">
    <path d="M56.6523 51.6609H78.7177C78.0172 57.3523 73.9018 61.205 68.3855 61.4677C62.6065 61.818 58.2284 58.3155 56.6523 51.6609Z" fill="white"/>
  </g>
  <mask id="mask6_233_6315" style="mask-type:luminance" maskUnits="userSpaceOnUse" x="0" y="0" width="136" height="106">
    <path d="M135.807 0H0V105.598H135.807V0Z" fill="white"/>
  </mask>
  <g mask="url(#mask6_233_6315)">
    <path d="M115.581 24.342C114.267 30.8215 109.977 34.4991 104.373 34.4115C98.6814 34.4115 94.3909 30.6464 93.4277 24.342C97.1053 24.342 100.695 24.342 104.285 24.342C107.963 24.342 111.64 24.342 115.581 24.342Z" fill="white"/>
  </g>
  <mask id="mask7_233_6315" style="mask-type:luminance" maskUnits="userSpaceOnUse" x="0" y="0" width="136" height="106">
    <path d="M135.807 0H0V105.598H135.807V0Z" fill="white"/>
  </mask>
  <g mask="url(#mask7_233_6315)">
    <path d="M135.807 64.0946C135.545 51.3982 130.203 41.5914 118.821 35.3746C118.295 35.0243 117.77 34.5865 117.42 34.3239C118.47 32.2224 119.871 30.3836 120.309 28.3697C120.922 25.8304 121.885 24.4295 124.687 23.6414C126.351 23.116 128.19 20.5768 128.365 18.738C128.54 16.8992 127.051 14.7102 125.913 12.959C124.95 11.4705 123.286 10.5073 122.235 9.10629C113.742 -2.80199 95.3542 -3.06467 86.423 8.75606C85.1972 10.4197 83.7086 11.9083 82.2201 13.3092C78.8052 16.6365 79.4181 22.5031 83.8837 23.6414C86.9484 24.4295 87.7364 26.0931 88.5245 28.5448C89.2249 30.909 91.2388 33.098 91.1513 35.287C91.0637 39.1397 92.3772 39.8402 95.6169 38.877C96.405 38.6143 97.2806 38.7019 98.0686 38.7019C102.184 38.7019 106.387 38.9646 110.502 38.6143C114.793 38.2641 118.383 40.9785 118.383 45.3565C118.383 49.9973 118.383 54.638 118.383 59.8916C110.502 59.8916 103.235 59.7165 95.9671 59.9792C94.3035 60.0668 91.3264 61.4677 91.2389 62.5185C90.8886 65.9333 93.9533 65.3204 96.0547 65.3204C102.972 65.408 109.889 65.408 116.807 65.3204C123.899 65.3204 123.899 65.2329 123.812 58.3155C123.812 54.7255 123.812 51.1356 123.812 47.5456C131.079 54.9882 130.379 63.8319 129.766 73.1133C120.747 73.1133 112.166 73.0258 103.585 73.2009C102.447 73.2009 101.308 74.8646 100.17 75.8277C101.221 76.7033 102.359 78.1919 103.41 78.1919C112.866 78.367 122.323 78.2794 131.78 78.367C134.494 78.367 135.632 77.1411 135.632 74.5143C135.807 71.187 135.895 67.6846 135.807 64.0946ZM104.373 34.4114C98.6816 34.4114 94.3911 30.6463 93.4279 24.3419C97.1055 24.3419 100.695 24.3419 104.285 24.3419C107.963 24.3419 111.553 24.3419 115.581 24.3419C114.267 30.8214 109.977 34.4114 104.373 34.4114ZM85.8101 18.5629C88.612 15.148 91.5016 7.35508 101.484 6.04166C101.571 8.40581 101.396 10.77 101.834 11.7331C102.359 13.1341 103.585 14.1848 104.461 15.4107C105.424 14.0973 106.825 12.959 107.175 11.4704C107.613 9.80679 107.35 7.96802 107.35 5.95412C117.42 7.26754 120.046 15.2356 122.848 18.4753H85.8101V18.5629Z" fill="#01053A"/>
  </g>
  <mask id="mask8_233_6315" style="mask-type:luminance" maskUnits="userSpaceOnUse" x="0" y="0" width="136" height="106">
    <path d="M135.807 0H0V105.598H135.807V0Z" fill="white"/>
  </mask>
  <g mask="url(#mask8_233_6315)">
    <path d="M31.1717 3.94019C21.9778 3.94019 14.5352 11.3829 14.5352 20.5768C14.5352 29.7707 21.9778 37.2133 31.1717 37.2133C40.3656 37.2133 47.8083 29.7707 47.8083 20.5768C47.8083 11.3829 40.3656 3.94019 31.1717 3.94019ZM31.1717 31.697C25.0425 31.697 20.0515 26.706 20.0515 20.5768C20.0515 14.4475 25.0425 9.45654 31.1717 9.45654C37.301 9.45654 42.292 14.4475 42.292 20.5768C42.3795 26.706 37.3886 31.697 31.1717 31.697Z" fill="#01053A"/>
  </g>
</svg>