<svg xmlns="http://www.w3.org/2000/svg" width="116" height="123" viewBox="0 0 116 123" fill="none">
<mask id="mask0_233_6219" style="mask-type:luminance" maskUnits="userSpaceOnUse" x="0" y="0" width="116" height="123">
<path d="M115.931 0H0V122.936H115.931V0Z" fill="white"/>
</mask>
<g mask="url(#mask0_233_6219)">
<path d="M97.369 35.0244H48.8602V107.262C59.5426 107.262 70.0499 107.262 80.4697 107.262C87.4746 107.262 94.3919 107.35 101.397 107.175C104.374 107.087 105.687 108.225 105.512 111.29C105.337 113.567 105.425 115.931 105.512 118.295C105.687 121.71 104.374 123.023 100.784 123.023C77.3175 122.936 53.7636 122.936 30.2973 122.936C24.0805 122.936 17.7761 122.848 11.5592 122.936C8.58217 123.023 7.26876 121.797 7.44388 118.82C7.619 116.281 7.619 113.654 7.44388 111.115C7.26876 108.225 8.49461 107.087 11.2966 107.175C13.2229 107.262 15.1492 107.175 17.4258 107.175V34.8493C13.2229 34.8493 8.84486 34.6741 4.55437 34.9368C1.13949 35.1119 -0.086358 33.7985 0.176325 30.4712C0.439008 25.8305 -1.04953 20.3141 0.964373 16.8117C2.97827 13.3968 8.49461 11.9083 12.61 9.71928C18.389 6.56708 24.2556 3.41489 30.2097 0.700499C31.8734 -0.0875491 34.3251 -0.17511 35.9887 0.437817C61.469 10.0695 86.8616 19.9639 112.342 29.6832C114.618 30.5588 115.582 31.6971 115.582 34.2363C115.669 39.2273 115.056 43.6054 109.89 46.3197C107.701 47.458 108.839 49.7346 110.24 51.2232C110.941 52.0112 112.079 52.449 112.867 53.2371C115.669 55.8639 116.457 60.1544 114.881 63.7444C113.393 67.1592 109.627 69.4358 106.037 69.1731C102.097 68.9105 98.5072 66.2836 97.7192 62.5185C97.4565 61.2927 98.4197 59.8041 98.7699 58.4031C99.8207 59.1912 100.959 60.0668 102.01 60.8549C103.498 61.9931 104.987 63.9195 106.65 64.0946C107.876 64.2697 110.328 62.3434 110.503 61.1175C110.678 59.4539 109.715 57.0022 108.402 55.9514C105.775 53.85 104.199 51.661 104.111 48.2461C104.111 47.5456 103.848 46.7575 103.411 46.3197C98.3321 40.891 98.3321 40.891 97.369 35.0244ZM98.4197 30.0334C98.5072 29.8583 98.5072 29.5956 98.5948 29.4205C79.0687 21.8902 59.5426 14.4476 39.4912 6.65464C43.0812 14.7102 50.7865 20.4017 48.51 30.0334H98.4197ZM12.5224 117.857H100.521V112.166H12.5224V117.857ZM33.2744 6.21684C29.8595 11.6456 26.7948 16.549 23.5551 21.6276C30.2973 25.3927 36.7768 28.8951 43.519 32.5727C43.519 28.8951 44.4822 25.3051 43.3439 22.7659C40.6295 17.162 36.8644 11.9959 33.2744 6.21684ZM26.0944 8.14318C19.2646 11.6456 13.1353 14.7978 7.1812 18.0376C6.30559 18.3878 5.25486 19.2634 5.25486 19.8763C5.07974 23.2037 5.1673 26.531 5.1673 29.9458H18.3014C15.4119 20.8395 22.6795 15.6734 26.0944 8.14318ZM22.767 47.3705C29.159 43.6929 35.0256 40.3656 41.33 36.7756C34.8505 33.2732 28.9839 30.0334 22.767 26.6185V47.3705ZM22.767 105.511C29.2466 101.833 35.0256 98.5061 41.4175 94.9161C34.8505 91.3261 28.9839 88.1739 22.767 84.759V105.511ZM41.33 65.8458C34.8505 62.3434 28.9839 59.1036 22.767 55.6888V76.3531C29.0714 72.8507 34.938 69.5234 41.33 65.8458ZM43.6065 61.7305V41.0661C37.3022 44.6561 31.5231 47.8958 25.1312 51.4858C31.5231 54.9883 37.3022 58.228 43.6065 61.7305ZM43.4314 90.6256V70.2239C37.2146 73.7263 31.4356 77.0536 25.1312 80.6436C31.6107 84.1461 37.3897 87.2983 43.4314 90.6256ZM43.6065 99.119C38.9658 101.746 34.7629 104.11 30.6475 106.474C30.7351 106.649 30.7351 106.824 30.8226 106.999H43.6065V99.119ZM101.309 35.0244C102.71 37.6512 103.411 39.9278 104.812 41.3288C105.512 42.0293 108.314 41.8541 109.015 40.9785C110.24 39.5775 110.591 37.3885 111.554 35.0244H101.309Z" fill="#01053A"/>
</g>
<mask id="mask1_233_6219" style="mask-type:luminance" maskUnits="userSpaceOnUse" x="0" y="0" width="116" height="123">
<path d="M115.931 0H0V122.936H115.931V0Z" fill="white"/>
</mask>
<g mask="url(#mask1_233_6219)">
<path d="M98.4197 30.0333H48.51C50.8741 20.4016 43.1688 14.7101 39.4912 6.65454C59.6302 14.3599 79.0688 21.8901 98.5948 29.4204C98.5073 29.6831 98.4197 29.8582 98.4197 30.0333Z" fill="white"/>
</g>
<mask id="mask2_233_6219" style="mask-type:luminance" maskUnits="userSpaceOnUse" x="0" y="0" width="116" height="123">
<path d="M115.931 0H0V122.936H115.931V0Z" fill="white"/>
</mask>
<g mask="url(#mask2_233_6219)">
<path d="M100.521 112.253H12.522V117.945H100.521V112.253Z" fill="white"/>
</g>
<mask id="mask3_233_6219" style="mask-type:luminance" maskUnits="userSpaceOnUse" x="0" y="0" width="116" height="123">
<path d="M115.931 0H0V122.936H115.931V0Z" fill="white"/>
</mask>
<g mask="url(#mask3_233_6219)">
<path d="M33.2735 6.21674C36.951 12.0833 40.7161 17.1619 43.343 22.8533C44.5688 25.3926 43.5181 28.9826 43.5181 32.6601C36.7759 28.895 30.2964 25.3926 23.5542 21.6275C26.794 16.5489 29.8586 11.6455 33.2735 6.21674Z" fill="white"/>
</g>
<mask id="mask4_233_6219" style="mask-type:luminance" maskUnits="userSpaceOnUse" x="0" y="0" width="116" height="123">
<path d="M115.931 0H0V122.936H115.931V0Z" fill="white"/>
</mask>
<g mask="url(#mask4_233_6219)">
<path d="M26.094 8.14313C22.7667 15.7609 15.4991 20.927 18.301 29.9458H5.16691C5.16691 26.6185 5.07935 23.2036 5.25447 19.8763C5.25447 19.2634 6.3052 18.3878 7.09325 17.95C13.135 14.7978 19.1767 11.6456 26.094 8.14313Z" fill="white"/>
</g>
<mask id="mask5_233_6219" style="mask-type:luminance" maskUnits="userSpaceOnUse" x="0" y="0" width="116" height="123">
<path d="M115.931 0H0V122.936H115.931V0Z" fill="white"/>
</mask>
<g mask="url(#mask5_233_6219)">
<path d="M22.7661 47.3705V26.6185C28.9829 30.0334 34.8495 33.2732 41.329 36.7756C35.0246 40.4532 29.1581 43.7805 22.7661 47.3705Z" fill="white"/>
</g>
<mask id="mask6_233_6219" style="mask-type:luminance" maskUnits="userSpaceOnUse" x="0" y="0" width="116" height="123">
<path d="M115.931 0H0V122.936H115.931V0Z" fill="white"/>
</mask>
<g mask="url(#mask6_233_6219)">
<path d="M22.7661 105.511V84.7589C28.9829 88.1738 34.762 91.326 41.4166 94.916C35.0246 98.506 29.2456 101.833 22.7661 105.511Z" fill="white"/>
</g>
<mask id="mask7_233_6219" style="mask-type:luminance" maskUnits="userSpaceOnUse" x="0" y="0" width="116" height="123">
<path d="M115.931 0H0V122.936H115.931V0Z" fill="white"/>
</mask>
<g mask="url(#mask7_233_6219)">
<path d="M41.329 65.8458C34.9371 69.5233 29.0705 72.7631 22.7661 76.3531V55.6887C29.0705 59.1036 34.9371 62.3433 41.329 65.8458Z" fill="white"/>
</g>
<mask id="mask8_233_6219" style="mask-type:luminance" maskUnits="userSpaceOnUse" x="0" y="0" width="116" height="123">
<path d="M115.931 0H0V122.936H115.931V0Z" fill="white"/>
</mask>
<g mask="url(#mask8_233_6219)">
<path d="M43.6062 61.7304C37.3018 58.228 31.5228 55.0758 25.1309 51.5734C31.5228 47.9834 37.3018 44.6561 43.6062 41.1536V61.7304Z" fill="white"/>
</g>
<mask id="mask9_233_6219" style="mask-type:luminance" maskUnits="userSpaceOnUse" x="0" y="0" width="116" height="123">
<path d="M115.931 0H0V122.936H115.931V0Z" fill="white"/>
</mask>
<g mask="url(#mask9_233_6219)">
<path d="M43.4311 90.6255C37.3894 87.2982 31.6104 84.146 25.1309 80.556C31.4352 76.966 37.2143 73.7262 43.4311 70.1362V90.6255Z" fill="white"/>
</g>
<mask id="mask10_233_6219" style="mask-type:luminance" maskUnits="userSpaceOnUse" x="0" y="0" width="116" height="123">
<path d="M115.931 0H0V122.936H115.931V0Z" fill="white"/>
</mask>
<g mask="url(#mask10_233_6219)">
<path d="M43.606 99.1189V106.999H30.8221C30.7345 106.824 30.647 106.649 30.647 106.474C34.7623 104.11 38.9653 101.746 43.606 99.1189Z" fill="white"/>
</g>
<mask id="mask11_233_6219" style="mask-type:luminance" maskUnits="userSpaceOnUse" x="0" y="0" width="116" height="123">
<path d="M115.931 0H0V122.936H115.931V0Z" fill="white"/>
</mask>
<g mask="url(#mask11_233_6219)">
<path d="M101.309 35.0243H111.641C110.678 37.3884 110.328 39.5775 109.102 40.9784C108.402 41.7665 105.6 41.9416 104.899 41.3287C103.411 39.9277 102.71 37.7387 101.309 35.0243Z" fill="white"/>
</g>
</svg>