<svg xmlns="http://www.w3.org/2000/svg" width="50" height="50" viewBox="0 0 50 50" fill="none">
  <path d="M28.9729 49.9869C28.8686 49.9087 28.7643 49.8435 28.6601 49.7523C28.3472 49.4525 28.269 49.0745 28.3994 48.6835C28.5427 48.2794 28.8425 48.0448 29.2727 48.0187C29.7158 48.0057 30.146 48.0057 30.5891 48.0057C31.2669 48.0057 31.2669 48.0057 31.2669 47.354C31.2669 44.8774 31.28 42.4139 31.2539 39.9374C31.2539 39.3117 31.4755 38.9077 32.0229 38.5948C33.5089 37.7346 34.7471 36.6136 35.7247 35.1928C36.6241 33.8764 37.0803 32.4296 37.1194 30.8394C37.1455 29.7054 37.1194 28.5583 37.1324 27.4243C37.1324 27.0854 37.0542 27.0463 36.7414 27.1767C34.5777 28.0239 32.414 27.0985 31.5276 24.9608C31.3842 24.6219 31.2148 24.5307 30.8759 24.5437C30.4067 24.5698 29.9374 24.5437 29.4682 24.5568C28.6079 24.5828 27.8259 24.3482 27.122 23.8659C26.9004 23.7095 26.757 23.6574 26.5876 23.9441C25.8707 25.2606 24.8279 26.2252 23.4724 26.8508C23.1335 27.0072 23.1335 27.1245 23.4333 27.3331C24.6976 28.2585 25.7143 29.4056 26.4051 30.8263C26.6006 31.2174 26.7179 31.2174 26.9916 30.8915C28.3342 29.2752 30.0547 28.415 32.1663 28.3889C32.8441 28.3758 33.2742 28.7408 33.3003 29.3274C33.3394 29.953 32.9614 30.3571 32.2575 30.4092C30.4458 30.5396 29.025 31.3216 28.0996 32.8988C27.6694 33.6157 27.5521 34.4108 27.4609 35.2319C27.3957 35.9097 27.0047 36.2747 26.4051 36.2617C25.8316 36.2356 25.4797 35.8576 25.4406 35.1928C25.2581 31.9864 23.7721 29.6141 20.8655 28.1934C19.8879 27.7111 18.8191 27.5547 17.7503 27.4895C17.0464 27.4504 16.6554 27.0594 16.6684 26.4337C16.6814 25.8472 17.0985 25.4822 17.7763 25.4692C18.9233 25.4431 20.0834 25.5213 21.2304 25.391C23.0031 25.1824 24.6585 23.8138 25.1799 22.1193C25.2972 21.7283 25.1799 21.6371 24.8019 21.6371C21.5042 21.6501 18.2065 21.6371 14.8957 21.6501C13.6183 21.6501 12.8232 22.4582 12.8232 23.7356C12.8102 26.0948 12.7972 28.4541 12.8232 30.8002C12.8623 33.7851 14.3874 35.9879 16.6554 37.7606C17.0464 38.0735 17.4635 38.3732 17.9067 38.6079C18.4932 38.9077 18.6887 39.3508 18.6757 39.9895C18.6496 42.44 18.6627 44.9035 18.6627 47.354C18.6627 48.0057 18.6627 48.0057 19.3404 48.0057C19.6663 48.0057 19.9922 48.0057 20.318 48.0057C21.0219 48.0057 21.3738 48.2012 21.5433 48.6704C21.7127 49.1657 21.5433 49.5698 20.9828 49.9869C19.7445 49.9869 18.5062 49.9869 17.281 49.9869C16.8118 49.7132 16.6554 49.3091 16.6554 48.7617C16.6684 46.0896 16.6554 43.4306 16.6684 40.7585C16.6684 40.3936 16.5511 40.172 16.2383 39.9634C14.1006 38.5557 12.4061 36.757 11.4416 34.3456C11.0245 33.3029 10.8029 32.208 10.8029 31.0609C10.8029 28.5583 10.7899 26.0557 10.8029 23.5531C10.8159 21.7935 11.6762 20.5682 13.2794 19.8774C13.6183 19.734 13.7357 19.5516 13.7357 19.1996C13.7226 18.0005 13.7226 16.7883 13.7357 15.5891C13.7617 12.8388 16.525 10.9488 19.0798 11.9525C19.4708 12.1089 19.6142 12.1089 19.7315 11.6527C20.1747 9.93216 21.7388 8.77209 23.5115 8.77209C25.3102 8.77209 26.8483 9.90609 27.3175 11.6266C27.4348 12.0828 27.5652 12.1219 27.9953 11.9525C30.159 11.1053 32.5964 12.3435 33.183 14.5985C33.3003 15.0286 33.4306 15.0416 33.7956 14.8852C36.3764 13.8555 39.1528 15.7455 39.1658 18.5218C39.1788 22.5364 39.1267 26.551 39.1788 30.5656C39.2179 33.8373 37.8363 36.4311 35.5031 38.5948C34.9557 39.1032 34.3691 39.5724 33.7304 39.9634C33.4176 40.1459 33.3003 40.3805 33.3003 40.7585C33.3133 43.4306 33.3003 46.0896 33.3133 48.7617C33.3133 49.2961 33.1569 49.7132 32.6877 49.9869C31.4494 49.9869 30.2111 49.9869 28.9729 49.9869ZM21.5954 15.928C21.5954 16.9968 21.5954 18.0656 21.5954 19.1475C21.5954 19.4212 21.6345 19.6167 21.9864 19.6167C23.0031 19.6037 24.0328 19.6037 25.0626 19.6167C25.3363 19.6167 25.4406 19.5124 25.4406 19.2387C25.4275 17.062 25.4797 14.8852 25.4145 12.7085C25.3754 11.2747 24.0198 10.4405 22.7555 10.9879C21.9473 11.3399 21.6215 12.0177 21.6084 12.8649C21.5824 13.8816 21.5954 14.9113 21.5954 15.928ZM31.28 18.8216C31.28 17.7919 31.293 16.7752 31.28 15.7455C31.2539 14.5985 30.4327 13.7382 29.3769 13.7252C28.3342 13.7121 27.4739 14.5724 27.4609 15.7194C27.4348 17.3227 27.4348 18.9389 27.4609 20.5422C27.487 21.6371 28.1647 22.367 29.2596 22.4973C29.7419 22.5495 30.2372 22.5234 30.7195 22.4843C31.1496 22.4452 31.306 22.2627 31.293 21.8326C31.2669 20.842 31.28 19.8253 31.28 18.8216ZM37.1324 21.0766C37.1324 20.2945 37.1455 19.5124 37.1324 18.7304C37.1324 18.2481 37.0151 17.7919 36.7153 17.4009C36.207 16.7622 35.3988 16.5145 34.6168 16.7622C33.8217 17.0098 33.3133 17.7267 33.3003 18.6782C33.2873 20.2554 33.2873 21.8326 33.3003 23.4097C33.3003 23.8659 33.4176 24.3091 33.7174 24.6871C34.2257 25.3258 35.0339 25.5735 35.8159 25.3258C36.598 25.0781 37.1063 24.3743 37.1324 23.4619C37.1455 22.6668 37.1324 21.8717 37.1324 21.0766ZM15.743 17.4269C15.743 18.0005 15.756 18.5609 15.743 19.1345C15.7299 19.4864 15.8342 19.6298 16.2122 19.6167C17.1898 19.5907 18.1543 19.6037 19.1319 19.6167C19.4708 19.6167 19.5881 19.5124 19.5881 19.1605C19.5751 18.0265 19.6011 16.8925 19.5751 15.7455C19.549 14.5985 18.7278 13.7382 17.6851 13.7252C16.6293 13.7121 15.7821 14.5854 15.756 15.7585C15.7299 16.319 15.743 16.8665 15.743 17.4269Z" fill="#00C9FF"/>
  <path d="M-0.00268555 24.6221C0.271037 24.1528 0.675104 23.9834 1.22255 23.9964C2.27834 24.0225 3.33412 23.9964 4.37688 24.0095C5.0677 24.0095 5.49784 24.4005 5.49784 25.0131C5.49784 25.6257 5.08073 26.0168 4.38991 26.0168C3.33412 26.0298 2.27834 26.0037 1.23558 26.0298C0.701173 26.0428 0.284071 25.8734 0.0103489 25.4041C-0.00268555 25.1434 -0.00268555 24.8828 -0.00268555 24.6221Z" fill="#00C9FF"/>
  <path d="M24.5801 49.987C24.3063 49.8045 24.0587 49.596 23.9805 49.2571C23.8632 48.7748 24.0978 48.2926 24.5409 48.097C24.9841 47.8885 25.5185 48.0319 25.7922 48.4359C26.079 48.84 26.0269 49.4005 25.6619 49.7654C25.5707 49.8567 25.4534 49.9219 25.3621 50.0001C25.1014 49.987 24.8407 49.987 24.5801 49.987Z" fill="#00C9FF"/>
  <path d="M47.2208 26.0167C46.6734 26.0167 46.1129 26.0167 45.5654 26.0167C44.8746 26.0037 44.4575 25.6126 44.4575 25C44.4575 24.4004 44.8746 24.0094 45.5394 24.0094C46.6603 23.9964 47.7813 23.9964 48.9023 24.0094C49.567 24.0094 49.9841 24.4004 49.9841 25C49.9841 25.6126 49.567 26.0167 48.8762 26.0167C48.3287 26.0167 47.7683 26.0167 47.2208 26.0167Z" fill="#00C9FF"/>
  <path d="M8.39145 6.82996C8.74338 6.84299 8.978 6.97333 9.18655 7.16885C9.83827 7.82057 10.503 8.47229 11.1417 9.13705C11.624 9.63235 11.637 10.2189 11.2069 10.649C10.7768 11.0792 10.1902 11.0661 9.69489 10.5839C9.01711 9.93215 8.35235 9.25436 7.70063 8.5896C7.37477 8.25071 7.29656 7.85967 7.50511 7.42954C7.68759 7.02547 8.02649 6.86906 8.39145 6.82996Z" fill="#00C9FF"/>
  <path d="M39.4523 10.962C39.0613 10.9229 38.7354 10.7535 38.553 10.3885C38.3575 9.99746 38.3835 9.60643 38.6703 9.2936C39.4002 8.52457 40.1432 7.78161 40.9122 7.06472C41.3032 6.69975 41.8637 6.76493 42.2417 7.12989C42.6197 7.49485 42.6979 8.09444 42.3199 8.4985C41.603 9.26753 40.834 9.99746 40.091 10.7404C39.9216 10.8968 39.687 10.949 39.4523 10.962Z" fill="#00C9FF"/>
  <path d="M25.9878 2.47654C25.9878 2.95881 26.0008 3.45412 25.9878 3.93639C25.9617 4.54901 25.5446 4.94004 24.9581 4.94004C24.3976 4.92701 23.9935 4.53597 23.9805 3.94943C23.9674 2.95881 23.9674 1.9682 23.9805 0.977581C23.9805 0.391032 24.4106 0 24.9711 0C25.5316 0 25.9487 0.391032 25.9747 0.964546C26.0008 1.47289 25.9747 1.98123 25.9878 2.47654Z" fill="#00C9FF"/>
</svg>