<svg xmlns="http://www.w3.org/2000/svg" width="18" height="24" viewBox="0 0 18 24" fill="none">
  <path d="M8.88424 2.49974e-06C7.80557 -0.000745865 6.73733 0.211162 5.74062 0.623607C4.74391 1.03605 3.83829 1.64094 3.07555 2.40368C2.31282 3.16642 1.70793 4.07204 1.29548 5.06875C0.883037 6.06545 0.671129 7.13369 0.671877 8.21237C0.671877 14.3715 8.88424 23.4646 8.88424 23.4646C8.88424 23.4646 17.0973 14.3715 17.0973 8.21237C17.0981 7.13363 16.8861 6.06533 16.4736 5.06858C16.0612 4.07183 15.4562 3.16617 14.6934 2.40343C13.9306 1.64068 13.0249 1.03581 12.0281 0.623403C11.0313 0.211 9.96297 -0.000839425 8.88424 2.49974e-06ZM8.88424 11.1457C8.30408 11.1457 7.73695 10.9737 7.25456 10.6514C6.77218 10.329 6.3962 9.87091 6.17419 9.33491C5.95217 8.79891 5.89408 8.20911 6.00726 7.6401C6.12045 7.07109 6.39982 6.54842 6.81005 6.13818C7.22029 5.72794 7.74296 5.44857 8.31197 5.33539C8.88099 5.2222 9.47078 5.28029 10.0068 5.50231C10.5428 5.72433 11.0009 6.1003 11.3232 6.58269C11.6455 7.06507 11.8176 7.63221 11.8176 8.21237C11.8174 8.99028 11.5083 9.73628 10.9582 10.2863C10.4082 10.8364 9.66215 11.1455 8.88424 11.1457Z" fill="white"/>
</svg>