<svg xmlns="http://www.w3.org/2000/svg" width="23" height="16" viewBox="0 0 23 16" fill="none">
  <path d="M22.239 2.37772L16.6149 8.10638C16.605 8.11582 16.5971 8.12718 16.5917 8.13978C16.5863 8.15238 16.5835 8.16595 16.5835 8.17966C16.5835 8.19337 16.5863 8.20694 16.5917 8.21954C16.5971 8.23214 16.605 8.2435 16.6149 8.25294L20.5507 12.4449C20.6141 12.5079 20.6645 12.5828 20.6988 12.6653C20.7332 12.7479 20.7508 12.8364 20.7508 12.9258C20.7508 13.0152 20.7332 13.1037 20.6988 13.1863C20.6645 13.2688 20.6141 13.3437 20.5507 13.4067C20.423 13.534 20.2501 13.6054 20.0698 13.6054C19.8895 13.6054 19.7166 13.534 19.5888 13.4067L15.6687 9.23048C15.6486 9.21046 15.6213 9.19921 15.5929 9.19921C15.5645 9.19921 15.5373 9.21046 15.5172 9.23048L14.5631 10.2023C14.1721 10.6019 13.7054 10.9195 13.1903 11.1367C12.6752 11.3539 12.1219 11.4663 11.5629 11.4673C10.9914 11.4652 10.4262 11.349 9.90025 11.1255C9.37431 10.9021 8.89827 10.5759 8.50005 10.1661L7.57658 9.23048C7.55645 9.21046 7.52921 9.19921 7.50081 9.19921C7.47241 9.19921 7.44517 9.21046 7.42504 9.23048L3.5049 13.4067C3.37716 13.534 3.20423 13.6054 3.02396 13.6054C2.84368 13.6054 2.67075 13.534 2.54301 13.4067C2.4796 13.3437 2.42927 13.2688 2.39493 13.1863C2.36058 13.1037 2.3429 13.0152 2.3429 12.9258C2.3429 12.8364 2.36058 12.7479 2.39493 12.6653C2.42927 12.5828 2.4796 12.5079 2.54301 12.4449L6.4788 8.25294C6.49661 8.23268 6.50643 8.20663 6.50643 8.17966C6.50643 8.15269 6.49661 8.12664 6.4788 8.10638L0.84974 2.37772C0.83552 2.36279 0.817154 2.35246 0.797009 2.34807C0.776865 2.34368 0.755866 2.34542 0.736723 2.35308C0.71758 2.36074 0.701171 2.37396 0.689612 2.39103C0.678053 2.4081 0.671875 2.42825 0.671875 2.44886V13.914C0.673189 14.3572 0.849835 14.7819 1.16323 15.0953C1.47663 15.4087 1.90131 15.5853 2.34451 15.5867H20.7435C21.1867 15.5853 21.6114 15.4087 21.9248 15.0953C22.2382 14.7819 22.4149 14.3572 22.4162 13.914V2.451C22.4158 2.43065 22.4095 2.41086 22.398 2.39405C22.3865 2.37724 22.3704 2.36415 22.3516 2.35637C22.3328 2.34859 22.3121 2.34647 22.2921 2.35026C22.2721 2.35405 22.2537 2.36359 22.239 2.37772Z" fill="white"/>
  <path d="M11.5435 10.1018C11.924 10.1036 12.301 10.029 12.6521 9.8823C13.0032 9.73564 13.3213 9.51996 13.5875 9.24805L21.7885 0.896949C21.4956 0.659946 21.1301 0.530835 20.7533 0.53126H2.33791C1.96097 0.529961 1.59521 0.659172 1.30273 0.896949L9.50443 9.24449C9.76987 9.51625 10.087 9.73212 10.4372 9.87935C10.7874 10.0266 11.1636 10.1022 11.5435 10.1018Z" fill="white"/>
</svg>