<svg xmlns="http://www.w3.org/2000/svg" width="23" height="23" viewBox="0 0 23 23" fill="none">
  <path d="M1.4616 1.6069L5.87833 0.58809C6.11135 0.535049 6.35557 0.565019 6.56885 0.672827C6.78213 0.780635 6.95108 0.959518 7.04654 1.1786L9.08487 5.93541C9.17182 6.13851 9.19024 6.36441 9.13736 6.57891C9.08447 6.79341 8.96315 6.98485 8.79175 7.12426L6.22125 9.23017C7.77897 12.536 10.4384 15.1967 13.7435 16.756L15.8501 14.1826C15.9895 14.0122 16.1803 13.8915 16.394 13.8387C16.6077 13.7858 16.8327 13.8037 17.0354 13.8895L21.7951 15.93C22.0151 16.0257 22.1949 16.1952 22.3034 16.4092C22.412 16.6232 22.4426 16.8684 22.3899 17.1025L21.3703 21.5192C21.3184 21.7442 21.1916 21.945 21.0106 22.0884C20.8296 22.2319 20.6052 22.3097 20.3743 22.3089C17.7865 22.3088 15.224 21.7989 12.8333 20.8084C10.4426 19.8179 8.27037 18.3661 6.44078 16.536C4.61118 14.7059 3.16003 12.5333 2.17019 10.1422C1.18035 7.75121 0.671222 5.18862 0.671877 2.60081C0.671479 2.37018 0.749393 2.14626 0.892861 1.9657C1.03633 1.78513 1.23685 1.65863 1.4616 1.6069Z" fill="white"/>
</svg>