<svg xmlns="http://www.w3.org/2000/svg" width="22" height="28" viewBox="0 0 22 28" fill="none">
  <path d="M9.74996 27.0971C9.22644 26.8718 9.05415 26.4477 9.05415 25.9043C9.06077 25.2217 9.1403 25.3145 8.44448 25.3013C8.19267 25.2946 7.93422 25.3145 7.6824 25.2681C7.20527 25.1754 6.89382 24.8772 6.81429 24.3934C6.74803 23.9693 6.73477 23.5518 6.92695 23.1476C6.97334 23.0482 6.95346 22.9686 6.9137 22.8759C6.72152 22.4451 6.7414 21.9945 6.8408 21.5505C6.89382 21.2987 7.04623 21.0734 7.2848 20.9475C7.44384 20.8613 7.47697 20.742 7.47697 20.5764C7.47035 20.1523 7.45709 19.7281 7.47697 19.304C7.51011 18.5154 7.18539 17.9323 6.52272 17.5148C5.62147 16.9515 4.87927 16.2159 4.27624 15.3412C3.48765 14.2014 3.02377 12.9423 2.90449 11.5573C2.68581 9.00601 3.52078 6.83242 5.32989 5.04982C6.57573 3.81723 8.09989 3.10154 9.84273 2.8696C10.0879 2.83647 10.2934 2.97563 10.3397 3.20094C10.3861 3.44613 10.2403 3.65819 9.95539 3.71121C9.43187 3.80398 8.91498 3.89676 8.41798 4.09556C5.77389 5.15585 4.15033 7.07761 3.79248 9.90725C3.42801 12.7965 4.52805 15.1026 6.92032 16.7593C7.66915 17.2762 8.20592 17.8992 8.30532 18.807C8.36496 19.3372 8.3252 19.8806 8.33183 20.4173C8.33183 20.7686 8.33183 20.7685 8.67642 20.7685C10.1409 20.7685 11.6055 20.7619 13.07 20.7752C13.3085 20.7752 13.3947 20.7089 13.3881 20.4637C13.3682 20.0595 13.3881 19.6553 13.3814 19.2444C13.3748 18.2437 13.7857 17.4552 14.614 16.8919C15.3231 16.4081 15.9791 15.8647 16.5093 15.1755C17.2714 14.1948 17.7352 13.0815 17.9274 11.8555C17.9407 11.7893 17.9473 11.7164 17.9738 11.6501C18.0533 11.4182 18.2389 11.3121 18.4708 11.3585C18.6829 11.3983 18.8287 11.6037 18.7955 11.8356C18.6564 12.7833 18.3847 13.6911 17.934 14.5394C17.278 15.772 16.3569 16.7593 15.1905 17.5214C14.5345 17.9455 14.2098 18.5353 14.2495 19.3239C14.2694 19.7348 14.2562 20.1523 14.2495 20.5697C14.2495 20.7354 14.2893 20.8481 14.4417 20.9408C14.7068 21.0933 14.8592 21.3451 14.9056 21.6433C14.9719 22.0674 14.9917 22.4849 14.7996 22.8891C14.7532 22.9885 14.7664 23.068 14.8062 23.1608C14.9984 23.6114 14.9917 24.0753 14.8725 24.5326C14.7466 25.0031 14.3489 25.2681 13.779 25.288C13.5206 25.2946 13.2688 25.3079 13.0103 25.288C12.7519 25.2681 12.626 25.3543 12.6591 25.626C12.6724 25.7121 12.6591 25.8049 12.6591 25.8911C12.679 26.4345 12.4934 26.8586 11.9699 27.0839C11.2277 27.0971 10.4855 27.0971 9.74996 27.0971ZM10.8368 24.4398C11.7247 24.4398 12.6194 24.4398 13.5073 24.4398C14.0773 24.4398 14.0772 24.4398 14.0772 23.8699C14.0772 23.4988 14.0441 23.4657 13.6664 23.4657C11.8573 23.4657 10.0548 23.4657 8.24568 23.4657C7.64264 23.4657 7.64264 23.4657 7.64927 24.0621C7.6559 24.3934 7.69566 24.4464 8.03362 24.4464C8.968 24.4398 9.90238 24.4398 10.8368 24.4398ZM10.8566 22.5909C11.7181 22.5909 12.5862 22.5909 13.4477 22.5909C14.0971 22.5909 14.0905 22.5909 14.0706 21.9481C14.064 21.7162 13.9646 21.6102 13.7327 21.6102C11.8109 21.6102 9.88912 21.6102 7.97398 21.6102C7.74204 21.6102 7.62939 21.7162 7.64264 21.9481C7.64927 22.0276 7.64264 22.1072 7.64264 22.1867C7.64264 22.5578 7.67578 22.5909 8.0535 22.5909C8.99451 22.5975 9.92888 22.5909 10.8566 22.5909ZM10.8633 25.3013C10.7771 25.3013 10.6843 25.3013 10.5982 25.3013C9.8096 25.3211 9.93551 25.1555 9.92226 26.017C9.92226 26.2091 10.0084 26.2887 10.194 26.2887C10.4922 26.282 10.7904 26.2887 11.0886 26.2887C11.8772 26.282 11.7844 26.3881 11.791 25.5266C11.791 25.3675 11.7247 25.3079 11.5657 25.3079C11.3338 25.3079 11.1018 25.3013 10.8633 25.3013Z" fill="#01053A"/>
  <path d="M9.57095 15.5797C9.57095 15.4803 9.55769 15.3809 9.57095 15.2881C9.61733 14.9965 9.49805 14.8507 9.21973 14.7447C8.98116 14.6519 8.83537 14.6718 8.67633 14.8574C8.50403 15.0562 8.31186 15.2417 8.11305 15.414C7.79497 15.6923 7.50339 15.6857 7.19856 15.3941C6.89373 15.1026 6.59552 14.8043 6.30394 14.4995C5.99911 14.1881 5.99911 13.8898 6.29732 13.5718C6.50275 13.3531 6.7148 13.141 6.93349 12.9356C7.03952 12.8362 7.07928 12.7434 6.99975 12.6109C6.95999 12.5446 6.92686 12.4651 6.90698 12.3922C6.86059 12.2 6.74794 12.1271 6.54251 12.1338C6.26418 12.147 5.97923 12.1404 5.69428 12.1338C5.30992 12.1271 5.09124 11.9482 5.05148 11.5705C4.99847 11.0801 4.99847 10.5831 5.05148 10.0927C5.08461 9.75473 5.27016 9.60232 5.6015 9.5493C5.91959 9.49629 6.23767 9.51617 6.54913 9.52942C6.90035 9.5493 6.87385 9.2511 6.99313 9.06555C7.09916 8.89988 6.97987 8.80711 6.88047 8.7077C6.6883 8.51553 6.48949 8.32335 6.30394 8.12455C5.99911 7.79983 5.99248 7.48837 6.29069 7.17029C6.58227 6.86546 6.88047 6.56063 7.19193 6.27567C7.50339 5.98409 7.81485 5.99072 8.12631 6.2823C8.33837 6.4811 8.5438 6.68653 8.7426 6.89859C8.85525 7.01787 8.94803 7.0245 9.10707 6.97811C9.49143 6.87208 9.62396 6.64677 9.56432 6.26905C9.53781 6.09012 9.55769 5.89795 9.55769 5.7124C9.56432 5.27503 9.76312 5.04309 10.1872 5.02321C10.6246 5.00333 11.0686 5.00333 11.506 5.02321C11.9235 5.04309 12.1223 5.27503 12.1289 5.69252C12.1355 5.98409 12.1355 6.27567 12.1289 6.56725C12.1223 6.73292 12.1885 6.81907 12.3476 6.87871C12.7982 7.05101 12.7982 7.05763 13.1362 6.71304C13.2952 6.56063 13.441 6.39496 13.6067 6.24917C13.8717 6.0106 14.1766 5.99072 14.4416 6.22929C14.7929 6.54737 15.1308 6.88534 15.4489 7.23656C15.6941 7.50826 15.6742 7.81309 15.4158 8.09141C15.2103 8.31672 14.985 8.52878 14.7663 8.74746C14.6802 8.83361 14.6007 8.91976 14.6868 9.03904C14.8061 9.20471 14.7465 9.50954 15.0646 9.51617C15.3363 9.5228 15.6146 9.50954 15.8863 9.5228C16.4429 9.54268 16.6616 9.76799 16.6682 10.3246C16.6749 10.6692 16.6749 11.0138 16.6682 11.3584C16.655 11.9084 16.4363 12.1271 15.8929 12.1271C15.6345 12.1271 15.3826 12.1338 15.1242 12.1271C14.9585 12.1205 14.8525 12.1669 14.8127 12.3392C14.7995 12.4054 14.7663 12.4717 14.7332 12.5314C14.6338 12.7037 14.6537 12.8296 14.8127 12.9687C15.0248 13.1543 15.217 13.3597 15.4091 13.5651C15.7074 13.8832 15.7074 14.1814 15.4025 14.4929C15.1109 14.7977 14.8127 15.0959 14.5079 15.3875C14.2031 15.6791 13.9115 15.6857 13.5934 15.4008C13.3681 15.202 13.1627 14.9833 12.9572 14.7646C12.8446 14.6453 12.7452 14.6188 12.5861 14.6917C12.1421 14.8905 12.1421 14.8839 12.1421 15.3809C12.1421 15.5996 12.1488 15.8249 12.1421 16.0436C12.1289 16.3948 11.9102 16.6201 11.559 16.6267C11.0951 16.6333 10.6246 16.6333 10.1541 16.6267C9.80288 16.6201 9.5842 16.3948 9.57095 16.0436C9.56432 15.8978 9.57095 15.7387 9.57095 15.5797ZM10.3993 6.59376C10.3993 6.73292 10.3993 6.87871 10.3993 7.01787C10.3927 7.35584 10.3131 7.46849 9.98843 7.57452C9.82939 7.62754 9.6571 7.66067 9.51131 7.74019C8.64982 8.21069 8.72272 8.05165 8.11305 7.46849C7.57628 6.95823 7.79497 6.9251 7.19193 7.50163C7.07265 7.61428 7.07265 7.69381 7.19193 7.80646C7.40399 8.00526 7.60942 8.21069 7.80822 8.42275C8.06004 8.68782 8.07992 8.83361 7.92088 9.15832C7.85461 9.29086 7.76183 9.41677 7.72207 9.56256C7.44375 10.5499 7.37748 10.3777 6.48949 10.3975C5.80693 10.4108 5.90634 10.2716 5.89308 11.0337C5.89308 11.2193 5.95935 11.2855 6.1449 11.2855C6.43648 11.2789 6.72806 11.2789 7.01964 11.2921C7.37748 11.3054 7.47688 11.3916 7.58954 11.7295C7.64255 11.8819 7.66906 12.041 7.74858 12.1801C8.24559 13.0814 8.03353 13.0284 7.49014 13.585C7.01963 14.0688 7.01963 14.0621 7.51002 14.526C7.6293 14.6387 7.70219 14.6387 7.81485 14.526C8.03353 14.2941 8.25884 14.0754 8.49078 13.8501C8.67633 13.6645 8.88176 13.6314 9.1137 13.7573C9.27274 13.8501 9.43841 13.9495 9.61071 13.9959C10.5716 14.2411 10.3794 14.3935 10.3993 15.1489C10.4192 15.9309 10.2403 15.7984 11.0951 15.8116C11.274 15.8182 11.3204 15.7321 11.3204 15.5731C11.3138 15.2748 11.3138 14.9766 11.3204 14.6718C11.3204 14.3338 11.3999 14.2212 11.7313 14.1152C12.0295 14.0224 12.3078 13.9097 12.5861 13.7639C12.8843 13.6049 13.0235 13.6314 13.2687 13.8766C13.4874 14.082 13.6796 14.314 13.9115 14.5061C14.2296 14.7778 14.276 14.3604 14.4483 14.2609C14.5742 14.1881 14.7531 14.0688 14.5344 13.87C14.3091 13.6712 14.1037 13.4525 13.8982 13.2338C13.6663 12.9952 13.6464 12.8561 13.7922 12.5446C13.8717 12.3856 13.9645 12.2332 14.0175 12.0675C14.2495 11.3584 14.1302 11.2524 15.1838 11.2656C15.1905 11.2656 15.2037 11.2656 15.2103 11.2656C15.9194 11.2524 15.82 11.3849 15.8266 10.5963C15.8266 10.4373 15.7604 10.3777 15.6013 10.3843C15.2899 10.3909 14.985 10.3777 14.6736 10.3843C14.3952 10.3909 14.223 10.265 14.1434 9.99993C14.0904 9.821 14.0507 9.63545 13.9579 9.47641C13.4675 8.63481 13.7193 8.60167 14.223 8.09141C14.7001 7.60103 14.7001 7.60766 14.1898 7.15041C14.0838 7.05101 14.0043 7.04438 13.9049 7.15041C13.6862 7.37572 13.4542 7.5944 13.2356 7.82634C13.0566 8.00526 12.8578 8.05165 12.6391 7.93237C12.3277 7.7667 12.003 7.63416 11.665 7.53476C11.4331 7.46849 11.3204 7.30945 11.327 7.06426C11.3337 6.74617 11.327 6.42809 11.327 6.11C11.327 5.99735 11.327 5.90457 11.1746 5.87807C10.5186 5.76541 10.4125 5.85156 10.4125 6.50098C10.3993 6.54074 10.3993 6.56725 10.3993 6.59376Z" fill="#01053A"/>
  <path d="M11.7908 2.86945C13.1825 3.04175 14.4084 3.50562 15.4952 4.30084C17.364 5.65933 18.4574 7.49495 18.7953 9.78781C18.8351 10.0794 18.6827 10.3047 18.4309 10.3378C18.1857 10.371 17.9869 10.1987 17.9471 9.88722C17.8477 9.15164 17.6555 8.43595 17.3242 7.76664C16.2374 5.57318 14.4946 4.23457 12.0824 3.78395C11.9433 3.75744 11.8041 3.73756 11.6716 3.6978C11.4462 3.6249 11.327 3.41285 11.3866 3.20079C11.4529 2.96223 11.6119 2.86282 11.7908 2.86945Z" fill="#01053A"/>
  <path d="M1.08859 10.4175C1.30065 10.4175 1.51271 10.4043 1.71814 10.4175C1.96995 10.4308 2.129 10.5898 2.14225 10.8019C2.1555 11.0404 2.02297 11.226 1.7579 11.2525C1.30065 11.2989 0.843401 11.2989 0.39278 11.2525C0.127708 11.2194 -0.018081 11.0338 0.00179938 10.8085C0.0216797 10.5832 0.187349 10.4374 0.452421 10.4109C0.472301 10.4109 0.485555 10.4109 0.505435 10.4109C0.697612 10.4175 0.896415 10.4175 1.08859 10.4175Z" fill="#01053A"/>
  <path d="M20.6575 10.4175C20.8563 10.4175 21.0617 10.4109 21.2606 10.4175C21.5256 10.4307 21.6913 10.5898 21.7112 10.8151C21.7311 11.0404 21.5853 11.226 21.3136 11.2525C20.8629 11.3055 20.3991 11.2989 19.9484 11.2525C19.69 11.226 19.5508 11.0338 19.5707 10.8018C19.5972 10.55 19.7629 10.444 19.9948 10.4175C20.0147 10.4175 20.028 10.4175 20.0479 10.4175C20.2533 10.4175 20.4587 10.4175 20.6575 10.4175Z" fill="#01053A"/>
  <path d="M10.4258 1.05384C10.4258 0.861666 10.4192 0.66949 10.4258 0.477313C10.4457 0.172481 10.6047 0.000184415 10.8499 0.000184415C11.0951 -0.00644237 11.274 0.165854 11.2807 0.464059C11.2939 0.868293 11.2939 1.27253 11.2807 1.67676C11.2674 1.96834 11.0885 2.14726 10.8499 2.14064C10.6113 2.13401 10.4523 1.96171 10.4258 1.66351C10.4258 1.64363 10.4258 1.63037 10.4258 1.61049C10.4258 1.41832 10.4258 1.23277 10.4258 1.05384Z" fill="#01053A"/>
  <path d="M4.82594 17.2962C4.81269 17.4353 4.75305 17.5414 4.6669 17.6275C4.38195 17.9125 4.09699 18.204 3.80542 18.4824C3.59998 18.6812 3.37467 18.6944 3.19575 18.5288C3.0102 18.3631 3.00357 18.1046 3.20238 17.8992C3.49396 17.5944 3.79216 17.2962 4.09699 17.0046C4.23616 16.8721 4.40183 16.8323 4.58075 16.9251C4.74642 17.0046 4.81931 17.1305 4.82594 17.2962Z" fill="#01053A"/>
  <path d="M18.6496 18.1839C18.6496 18.396 18.5701 18.5086 18.4309 18.5881C18.2851 18.6677 18.1327 18.6677 18.0134 18.5616C17.6423 18.2369 17.2911 17.8923 16.973 17.5146C16.8405 17.3556 16.867 17.1634 17.0061 17.011C17.1453 16.8586 17.3375 16.7989 17.5032 16.9315C17.914 17.2495 18.2719 17.6206 18.5966 18.0249C18.643 18.0779 18.643 18.1574 18.6496 18.1839Z" fill="#01053A"/>
  <path d="M3.50061 3.05511C3.61989 3.04848 3.73255 3.12137 3.82532 3.21415C4.10365 3.48585 4.38197 3.75755 4.64704 4.03587C4.87236 4.27443 4.87898 4.50637 4.69343 4.69192C4.50788 4.87084 4.27594 4.85096 4.04401 4.61903C3.75243 4.33408 3.46748 4.04912 3.18915 3.75755C3.05662 3.62501 3.03011 3.45934 3.103 3.29367C3.16927 3.13463 3.30181 3.05511 3.50061 3.05511Z" fill="#01053A"/>
  <path d="M17.3244 4.81116C16.993 4.81116 16.7677 4.44006 16.9599 4.18824C17.2581 3.78401 17.6292 3.43279 18.0202 3.12133C18.1859 2.9888 18.3979 3.02193 18.5437 3.1876C18.6829 3.34002 18.716 3.54545 18.5768 3.69786C18.2521 4.05571 17.9009 4.38705 17.5563 4.73164C17.49 4.79128 17.3906 4.79791 17.3244 4.81116Z" fill="#01053A"/>
  <path d="M8.7161 10.855C8.70947 9.67541 9.67698 8.69465 10.8566 8.68802C12.0295 8.68139 13.0036 9.66216 13.0036 10.8484C13.0036 12.0345 12.056 12.9822 10.8764 12.9888C9.67698 12.9954 8.72273 12.0478 8.7161 10.855ZM10.8566 9.5495C10.1541 9.5495 9.56433 10.1327 9.5577 10.8417C9.55107 11.5375 10.1409 12.1339 10.8499 12.1472C11.559 12.1605 12.1753 11.5442 12.162 10.8351C12.1488 10.126 11.5656 9.5495 10.8566 9.5495Z" fill="#01053A"/>
</svg>