<svg xmlns="http://www.w3.org/2000/svg" width="32" height="32" viewBox="0 0 32 32" fill="none">
  <path d="M21.3049 11.3227C21.3049 11.8407 20.8848 12.2591 20.3685 12.2591C19.8505 12.2591 19.4321 11.839 19.4321 11.3227C19.4321 10.8047 19.8522 10.3863 20.3685 10.3863C20.8848 10.3863 21.3049 10.8047 21.3049 11.3227ZM20.1377 15.5215C20.1377 17.6914 18.3729 19.4563 16.2029 19.4563C14.033 19.4563 12.2681 17.6914 12.2681 15.5215C12.2681 13.3515 14.033 11.5867 16.2029 11.5867C18.3729 11.5867 20.1377 13.3515 20.1377 15.5215ZM18.7248 15.5215C18.7248 14.1318 17.5942 13.0012 16.2046 13.0012C14.815 13.0012 13.6843 14.1318 13.6843 15.5215C13.6843 16.9111 14.815 18.0417 16.2046 18.0417C17.5942 18.0417 18.7248 16.9111 18.7248 15.5215ZM24.1671 12.3603C24.1671 9.71057 22.0188 7.56055 19.3674 7.56055H12.8193C10.1696 7.56055 8.01953 9.70891 8.01953 12.3603V18.91C8.01953 21.5598 10.1679 23.7098 12.8193 23.7098H19.3674C22.0171 23.7098 24.1671 21.5615 24.1671 18.91V12.3603ZM22.5916 18.837C22.5916 20.6566 21.1156 22.1326 19.296 22.1326H12.8924C11.0711 22.1326 9.59677 20.6566 9.59677 18.837V12.4317C9.59677 10.6121 11.0727 9.13613 12.8924 9.13613H19.296C21.1156 9.13613 22.5916 10.6121 22.5916 12.4317V18.837Z" fill="white"/>
  <path d="M16.0933 0C7.4716 0 0.457031 7.01456 0.457031 15.6363C0.457031 24.2579 7.4716 31.2725 16.0933 31.2725C24.715 31.2725 31.7295 24.2579 31.7295 15.6363C31.7295 7.01291 24.7166 0 16.0933 0ZM16.0933 29.2669C8.57732 29.2669 2.46262 23.1522 2.46262 15.6363C2.46262 8.12029 8.57732 2.00558 16.0933 2.00558C23.6092 2.00558 29.724 8.12029 29.724 15.6363C29.7256 23.1522 23.6109 29.2669 16.0933 29.2669Z" fill="white"/>
</svg>