<svg xmlns="http://www.w3.org/2000/svg" width="29" height="26" viewBox="0 0 29 26" fill="none">
<path d="M28.2888 9.48224C28.1635 10.1976 28.0234 10.9056 27.7652 11.5914C27.367 12.6165 26.8065 13.5457 26.0469 14.3348C25.0882 15.3304 24.1074 16.2965 23.1265 17.2699C22.8389 17.5502 22.5144 17.5576 22.2711 17.3142C22.0277 17.0782 22.0351 16.739 22.2932 16.4514C22.3448 16.3924 22.4112 16.3334 22.4702 16.2744C23.2814 15.4631 24.1 14.6445 24.9112 13.8333C25.1546 13.59 25.3906 13.3466 25.5971 13.0737C26.5263 11.8643 27.0425 10.5147 27.1384 8.98813C27.3818 5.1754 24.6826 2.0264 21.3271 1.36267C18.8713 0.883316 16.6958 1.48067 14.83 3.15473C14.7784 3.20635 14.7267 3.25798 14.6677 3.3096C14.3285 3.61934 14.0261 3.62671 13.7016 3.30222C13.1117 2.727 12.4553 2.24764 11.7105 1.88628C7.35939 -0.252391 2.04221 2.48363 1.27524 7.26245C0.921254 9.44537 1.43748 11.4218 2.83131 13.1549C3.07467 13.4646 3.08205 13.4646 3.31066 13.1549C4.21038 11.9306 5.1101 10.7138 6.01719 9.48961C6.93903 8.24329 8.46559 8.28754 9.30631 9.58549C9.43906 9.7846 9.5128 9.69611 9.60868 9.58549C10.3978 8.70052 11.1795 7.80818 11.9686 6.92321C12.1898 6.67247 12.3963 6.41436 12.6618 6.21524C13.4878 5.61051 14.653 5.80963 15.2503 6.65772C15.3683 6.81997 15.4347 6.84947 15.6117 6.73147C16.3344 6.25211 17.2784 6.32586 17.9126 6.89371C18.5616 7.47632 18.7386 8.37603 18.3403 9.15775C18.2445 9.34212 18.2666 9.40849 18.451 9.50436C19.2917 9.93947 19.6604 10.8834 19.3581 11.7758C19.2991 11.9528 19.2991 12.0339 19.4908 12.1298C20.5749 12.6607 20.8846 14.0177 20.1103 14.9543C19.4834 15.7139 18.8123 16.4366 18.1634 17.1741C16.7917 18.7228 15.42 20.2715 14.0483 21.8201C13.6869 22.2258 13.296 22.6019 12.8462 22.919C12.6987 23.0222 12.6987 23.096 12.8241 23.214C13.178 23.5532 13.5173 23.8998 13.8639 24.2464C14.122 24.5045 14.2474 24.5045 14.5129 24.2391C15.8624 22.8969 17.2046 21.5473 18.5542 20.1977C18.6427 20.1092 18.7386 20.0133 18.8418 19.9396C19.0704 19.7773 19.3876 19.8069 19.5793 19.9986C19.7784 20.1977 19.8153 20.4853 19.653 20.7287C19.594 20.8172 19.5129 20.8983 19.4392 20.9794C18.0822 22.3364 16.7179 23.7007 15.361 25.0576C14.6161 25.7951 13.7828 25.7951 13.0379 25.0576C12.6176 24.6447 12.1972 24.2317 11.7916 23.8039C11.6662 23.6786 11.563 23.6638 11.4081 23.7302C10.5821 24.0694 9.7193 24.2464 8.82696 24.2391C8.66471 24.2391 8.54672 24.2981 8.44347 24.416C8.16323 24.7332 7.89037 25.0576 7.60275 25.3674C7.08652 25.9352 6.44492 25.9721 5.87707 25.4633C4.43162 24.1874 2.9788 22.9042 1.54073 21.621C0.862256 21.0163 0.803258 20.3673 1.46698 19.7552C2.02746 19.239 2.12333 18.6785 2.02009 17.9705C1.86522 16.8791 2.05696 15.8098 2.44045 14.7773C2.50682 14.6077 2.47732 14.4971 2.35195 14.3643C0.611515 12.5133 -0.140706 10.323 0.0215377 7.81555C0.264904 4.0397 3.27379 0.743196 7.0054 0.131094C9.60868 -0.29664 11.9317 0.322837 13.9671 1.98215C14.1441 2.12227 14.24 2.10752 14.4022 1.97477C15.7592 0.861191 17.3079 0.219591 19.0557 0.0720963C21.6811 -0.141771 23.9378 0.684198 25.8109 2.51313C27.2048 3.87745 28.016 5.55151 28.252 7.49107C28.2593 7.54269 28.2741 7.60169 28.2888 7.65331C28.2888 8.26541 28.2888 8.87014 28.2888 9.48224ZM8.85645 23.0517C10.5379 23.0222 11.9465 22.388 13.0674 21.1343C14.6014 19.4234 16.1206 17.6977 17.6471 15.9794C18.156 15.4115 18.6575 14.8289 19.1589 14.2611C19.3581 14.0398 19.3876 13.7817 19.2917 13.5162C19.2032 13.2728 18.9967 13.1401 18.746 13.1032C18.4583 13.059 18.2592 13.2138 18.0822 13.4203C17.1088 14.5192 16.1279 15.618 15.1545 16.7242C14.8816 17.034 14.5497 17.0856 14.2842 16.8643C14.0188 16.6431 14.0114 16.2744 14.2769 15.9572C14.4465 15.7581 14.6161 15.5738 14.7857 15.3746C15.8698 14.1504 16.9539 12.9189 18.038 11.6947C18.156 11.5619 18.2592 11.4218 18.2813 11.2374C18.3182 10.9277 18.1634 10.6474 17.8831 10.5147C17.5955 10.3746 17.3005 10.4262 17.0571 10.6917C16.3787 11.4439 15.7149 12.2035 15.0438 12.9631C14.4391 13.6416 13.8344 14.3274 13.237 15.0059C13.06 15.205 12.8536 15.3304 12.5807 15.264C12.1456 15.1534 12.0055 14.6445 12.3299 14.2684C12.8093 13.708 13.3034 13.1622 13.7901 12.6165C14.9111 11.348 16.0321 10.087 17.153 8.81114C17.5586 8.34653 17.3669 7.72706 16.7843 7.58694C16.4745 7.51319 16.2533 7.66806 16.0616 7.88193C14.8226 9.27575 13.5837 10.6769 12.3447 12.0708C11.976 12.4838 11.6146 12.9041 11.2459 13.3097C10.973 13.6047 10.6559 13.6342 10.3904 13.4056C10.1249 13.177 10.1175 12.8525 10.3756 12.5501C10.4568 12.4469 10.5453 12.351 10.6264 12.2551C11.8063 10.9203 12.9937 9.58549 14.1736 8.25066C14.4981 7.88193 14.4981 7.48369 14.181 7.20345C13.886 6.94534 13.4657 6.98958 13.1559 7.32882C12.8241 7.69756 12.4996 8.07367 12.1677 8.4424C11.091 9.65923 10.0143 10.8834 8.9302 12.0929C8.56147 12.5059 8.2591 12.587 7.96411 12.3584C7.6765 12.1371 7.6765 11.8422 7.97149 11.3554C8.08211 11.1711 8.2001 11.0014 8.2886 10.8097C8.41397 10.5368 8.39185 10.2713 8.2001 10.028C8.01574 9.79935 7.765 9.72561 7.48476 9.76985C7.22664 9.8141 7.07177 9.99847 6.93165 10.1902C6.00981 11.4365 5.0806 12.6902 4.15876 13.9366C4.02601 14.1136 3.91539 14.3053 3.81214 14.4971C3.08205 15.8835 3.0083 17.3584 3.27379 18.8703C3.32541 19.1652 3.27379 19.4086 3.0673 19.6299C2.81656 19.9027 2.58057 20.183 2.32983 20.4484C2.22658 20.5664 2.19708 20.6476 2.3372 20.7656C3.72365 21.9898 5.1101 23.2066 6.48917 24.4382C6.64404 24.5709 6.73253 24.5414 6.85053 24.4087C7.16027 24.0547 7.47738 23.7081 7.77975 23.3541C7.97886 23.1181 8.22223 23.0001 8.53197 23.0296C8.63521 23.0591 8.74583 23.0517 8.85645 23.0517Z" fill="#01053A"/>
<path d="M20.9068 19.2095C20.5897 19.2095 20.3315 18.9514 20.3315 18.6343C20.3315 18.3171 20.5823 18.0664 20.9141 18.0664C21.2386 18.0664 21.4894 18.3171 21.4894 18.6343C21.4894 18.9514 21.2239 19.2095 20.9068 19.2095Z" fill="#01053A"/>
</svg>