<svg xmlns="http://www.w3.org/2000/svg" width="92" height="45" viewBox="0 0 92 45" fill="none">
  <g clip-path="url(#clip0_1033_6297)">
    <path d="M16.7975 45C24.1852 34.0479 32.2028 23.8335 41.6521 15.0946C34.5508 22.7554 28.3085 31.2673 22.9252 40.517C22.3526 41.4817 21.8944 42.5031 21.379 43.5246C21.379 43.5813 21.379 43.5813 21.379 43.7516C21.6081 43.7516 21.8944 43.7516 22.1235 43.7516C31.6874 43.7516 41.2512 43.7516 50.8724 43.7516C62.6125 43.7516 74.3526 43.7516 86.0926 43.7516C86.7226 43.7516 87.3526 43.7516 87.9825 43.6948C89.0134 43.6381 89.8724 42.7869 89.9297 41.7654C89.9297 40.517 89.9869 39.2119 89.9869 37.9634C89.9869 28.1463 89.9869 18.3291 89.9869 8.51198C89.9869 6.86633 89.9297 5.16393 89.9869 3.51828C89.9869 2.61034 89.586 1.98613 88.7843 1.53216C88.4979 1.36192 88.0971 1.36192 87.6962 1.36192C86.1499 1.30517 84.5464 1.30517 83.0001 1.30517C69.3702 1.30517 55.7402 1.30517 42.1103 1.24842C41.9385 1.24842 41.7667 1.24842 41.5948 1.24842C40.0486 1.24842 40.0486 1.24842 39.0178 2.32661C36.0398 5.33417 33.2336 8.51198 30.4847 11.8033C26.8195 16.1728 23.3261 20.7125 20.0045 25.309C18.2865 27.6923 16.6257 30.0757 14.9649 32.459C14.8504 32.5725 14.7931 32.7427 14.6213 32.913C14.3349 32.5725 14.0486 32.232 13.8195 31.8916C11.0706 28.3165 7.92084 25.082 4.08383 22.5284C2.99572 21.7907 1.79308 21.1665 0.590439 20.4855C0.361364 20.3153 0.246826 20.2018 0.246826 19.918C0.246826 14.3001 0.246826 8.68222 0.246826 3.12106C0.246826 1.75914 1.62128 0.283733 2.99573 0.0567465C3.56841 0 4.08383 0 4.59925 0C32.26 0 59.9208 0 87.5816 0C89.2997 0 90.5023 0.794451 91.075 2.38335C91.1896 2.66709 91.2468 2.95082 91.2468 3.23455C91.2468 15.9458 91.2468 28.657 91.2468 41.3682C91.2468 43.3544 89.8724 44.7163 88.4407 44.9433C88.2689 45 88.0971 45 87.868 45C78.3041 45 68.7402 45 59.1763 45C47.8371 45 36.5552 45 25.216 45C22.5816 45 19.89 45 17.2556 45C17.1984 45 17.0266 45 16.7975 45Z" fill="#181935"/>
    <path d="M0.246826 34.5586C4.88559 37.3392 8.43625 41.1979 12.1587 45C11.8151 45 11.6433 45 11.4142 45C8.77987 45 6.20277 45 3.56841 44.9432C1.90762 44.9432 0.475901 43.6948 0.304095 42.0491C0.246826 41.7654 0.246826 41.4817 0.246826 41.1979C0.246826 39.1551 0.246826 37.1122 0.246826 35.0693C0.246826 34.9558 0.246826 34.8423 0.246826 34.5586Z" fill="#181935"/>
    <path d="M43.1411 11.4628H38.7314V26.4439H43.1411V11.4628Z" fill="#181935"/>
    <path d="M50.2997 21.28C50.7006 22.7554 52.075 23.4931 54.8239 23.4931C57.9737 23.4931 59.0618 23.0391 59.0618 22.1312C59.0618 21.28 58.6037 20.9395 56.2557 20.7125L51.9605 20.4288C48.0662 20.0883 46.3482 18.6129 46.3482 16.0593C46.3482 12.995 49.3261 11.1791 54.7667 11.1791C59.8063 11.1791 62.4979 12.6545 63.1852 15.6621L58.7182 16.2863C58.3173 14.9243 57.2292 14.3569 54.6521 14.3569C51.7314 14.3569 50.7579 14.8676 50.7579 15.6621C50.7579 16.4565 51.3305 16.797 53.3922 16.9672L57.8019 17.251C61.8107 17.5914 63.5288 19.0668 63.5288 21.6772C63.5288 24.7415 60.7799 26.6141 54.7667 26.6141C49.4407 26.6141 46.5772 25.082 45.89 21.8474L50.2997 21.28Z" fill="#181935"/>
    <path d="M64.3878 19.0101C64.3878 14.1867 68.053 11.2358 74.238 11.2358C80.3658 11.2358 84.0883 14.1867 84.0883 19.0101C84.0883 23.7768 80.3658 26.7276 74.238 26.7276C68.1103 26.6709 64.3878 23.7201 64.3878 19.0101ZM79.6213 19.0101C79.6213 16.116 77.846 14.6974 74.238 14.6974C70.6301 14.6974 68.8548 16.1728 68.8548 19.0101C68.8548 21.8474 70.6301 23.2661 74.238 23.2661C77.846 23.2661 79.6213 21.8474 79.6213 19.0101Z" fill="#181935"/>
    <path d="M41.0795 34.1046C39.7623 34.1046 38.9605 33.7074 38.7314 32.9697L40.0486 32.7427C40.1059 33.0264 40.5068 33.1399 41.1367 33.1399C41.9958 33.1399 42.4539 32.7427 42.5112 31.8915C42.1676 32.232 41.5376 32.4022 40.7931 32.4022C39.4759 32.4022 38.7314 31.8915 38.7314 30.9836C38.7314 30.0189 39.6477 29.4514 41.194 29.4514C42.9121 29.4514 43.8284 30.3026 43.8284 31.778C43.7711 33.2534 42.7975 34.1046 41.0795 34.1046ZM39.9914 30.9268C39.9914 31.2673 40.335 31.4375 41.1367 31.4375C41.8812 31.4375 42.2821 31.2673 42.2821 30.9268C42.2821 30.5863 41.9385 30.4161 41.1367 30.4161C40.3922 30.4161 39.9914 30.5863 39.9914 30.9268Z" fill="#181935"/>
    <path d="M44.0001 31.778C44.0001 30.3026 45.031 29.4514 46.749 29.4514C48.4671 29.4514 49.4979 30.3026 49.4979 31.778C49.4979 33.2534 48.4671 34.1046 46.749 34.1046C45.031 34.1046 44.0001 33.2534 44.0001 31.778ZM48.1807 31.778C48.1807 30.9268 47.7226 30.4729 46.749 30.4729C45.8327 30.4729 45.3173 30.9268 45.3173 31.778C45.3173 32.6292 45.7754 33.0832 46.749 33.0832C47.7226 33.0832 48.1807 32.6292 48.1807 31.778Z" fill="#181935"/>
    <path d="M49.7843 31.778C49.7843 30.3026 50.8151 29.4514 52.5332 29.4514C54.2513 29.4514 55.2821 30.3026 55.2821 31.778C55.2821 33.2534 54.2513 34.1046 52.5332 34.1046C50.8151 34.1046 49.7843 33.2534 49.7843 31.778ZM53.9649 31.778C53.9649 30.9268 53.5068 30.4729 52.5332 30.4729C51.6169 30.4729 51.1015 30.9268 51.1015 31.778C51.1015 32.6292 51.5596 33.0832 52.5332 33.0832C53.4495 33.0832 53.9649 32.6292 53.9649 31.778Z" fill="#181935"/>
    <path d="M55.5111 33.0265H57.2864V30.5864L55.6829 30.9268V29.8487L57.4582 29.5082H58.6609V33.0265H60.1499V34.0479H55.5111V33.0265Z" fill="#181935"/>
    <path d="M61.1235 30.4729H62.4407V31.6078H61.1235V30.4729ZM61.1235 32.913H62.4407V34.0479H61.1235V32.913Z" fill="#181935"/>
    <path d="M66.1632 31.8915C67.0795 31.4375 67.3086 31.2106 67.3086 30.9268C67.3086 30.6431 67.0222 30.4729 66.335 30.4729C65.5332 30.4729 65.1896 30.6998 65.1896 31.2106L63.8724 30.9836C64.0442 29.9621 64.846 29.4514 66.335 29.4514C67.824 29.4514 68.6257 29.9621 68.6257 30.8701C68.6257 31.551 68.2821 31.9483 66.7931 32.686L66.1632 33.0264H68.683V34.0479H63.987V33.0264L66.1632 31.8915Z" fill="#181935"/>
    <path d="M68.912 31.778C68.912 30.3026 69.9428 29.4514 71.6609 29.4514C73.3789 29.4514 74.4098 30.3026 74.4098 31.778C74.4098 33.2534 73.3789 34.1046 71.6609 34.1046C69.9428 34.1046 68.912 33.2534 68.912 31.778ZM73.0926 31.778C73.0926 30.9268 72.6345 30.4729 71.6609 30.4729C70.7446 30.4729 70.2292 30.9268 70.2292 31.778C70.2292 32.6292 70.6873 33.0832 71.6609 33.0832C72.6345 33.0832 73.0926 32.6292 73.0926 31.778Z" fill="#181935"/>
    <path d="M74.6389 33.0265H76.4715V30.5864L74.8107 30.9268V29.8487L76.6433 29.5082H77.7887V33.0265H79.335V34.0479H74.6389V33.0265Z" fill="#181935"/>
    <path d="M79.335 32.913L80.6521 32.6292C80.7667 32.913 81.1103 33.0832 81.7975 33.0832C82.542 33.0832 82.8856 32.913 82.8856 32.5157C82.8856 32.1185 82.542 31.9483 81.7975 31.9483C81.1676 31.9483 80.8239 32.005 80.6521 32.232L79.5068 32.1185L79.7931 29.5082H83.8592V30.4729H80.8812L80.7667 31.3808C81.1103 31.1538 81.6257 31.0403 82.1984 31.0403C83.4583 31.0403 84.2028 31.5511 84.2601 32.5157C84.2601 33.5372 83.4583 34.1046 81.8548 34.1046C80.3658 34.1046 79.6213 33.7642 79.335 32.913Z" fill="#181935"/>
  </g>
  <defs>
    <clipPath id="clip0_1033_6297">
      <rect width="91" height="45" fill="white" transform="translate(0.246826)"/>
    </clipPath>
  </defs>
</svg>