<svg xmlns="http://www.w3.org/2000/svg" width="47" height="47" viewBox="0 0 47 47" fill="none">
<path d="M0.576336 46.1166C-0.0909752 45.6207 -0.163117 45.2239 0.278751 44.4574C2.83077 40.0477 5.3918 35.629 7.94382 31.2194C9.07103 29.2715 10.1982 27.3237 11.3255 25.3849C11.8665 24.4561 12.6601 24.4471 13.2282 25.3669C14.2292 26.9901 15.2211 28.6132 16.2311 30.2274C16.5107 30.6693 16.5197 30.6693 16.7992 30.2094C18.4946 27.45 20.1899 24.6905 21.9033 21.9401C22.0836 21.6425 22.1558 21.354 22.1558 21.0113C22.1467 14.4284 22.1558 7.84542 22.1558 1.25346C22.1558 0.955879 22.1377 0.649276 22.3361 0.387762C22.5435 0.11723 22.814 0 23.1567 0C27.9091 0 32.6704 0 37.4228 0C37.8376 0 38.1532 0.153301 38.3336 0.532046C38.5229 0.928826 38.4147 1.28953 38.1532 1.62319C37.2514 2.75041 36.3677 3.88664 35.4479 4.99582C35.1683 5.32948 35.1773 5.5459 35.4479 5.87956C36.3226 6.92561 37.1612 8.00774 38.0089 9.07183C38.1983 9.30629 38.3877 9.54075 38.4057 9.85637C38.4418 10.3974 38.0811 10.8123 37.54 10.8573C37.3777 10.8664 37.2063 10.8664 37.044 10.8664C32.8868 10.8664 28.7297 10.8754 24.5815 10.8573C24.1216 10.8573 24.0044 10.9926 24.0044 11.4435C24.0224 14.6538 24.0134 17.8641 24.0134 21.0744C24.0134 21.39 24.0855 21.6516 24.2569 21.9221C25.9703 24.6905 27.6746 27.459 29.379 30.2364C29.6495 30.6783 29.6675 30.6783 29.9471 30.2274C30.921 28.6493 31.94 27.0802 32.8598 25.4661C33.3918 24.5282 34.3116 24.429 34.9339 25.5111C38.586 31.8867 42.2833 38.2352 45.9625 44.6017C46.0167 44.6918 46.0708 44.782 46.1249 44.8722C46.1249 45.296 46.2872 45.8732 46.0798 46.0896C45.8724 46.297 45.2862 46.1347 44.8714 46.1347C30.1004 46.1166 15.3384 46.1166 0.576336 46.1166ZM23.0575 44.277C27.0884 44.277 31.1284 44.277 35.1593 44.277C35.3307 44.277 35.5651 44.3762 35.6553 44.1959C35.7364 44.0516 35.5561 43.8983 35.4659 43.763C31.435 37.2071 27.4041 30.6603 23.3731 24.1134C23.0846 23.6355 23.0665 23.6355 22.778 24.1134C18.7471 30.6603 14.7161 37.2162 10.6852 43.763C10.604 43.8983 10.4147 44.0516 10.4958 44.1959C10.595 44.3672 10.8205 44.277 10.9918 44.277C15.0137 44.286 19.0356 44.277 23.0575 44.277ZM5.36475 44.277C6.09518 44.277 6.83464 44.25 7.56507 44.286C7.97989 44.3041 8.21435 44.1598 8.43077 43.8081C10.6672 40.1469 12.9126 36.5037 15.167 32.8606C15.3474 32.572 15.3203 32.3646 15.149 32.0941C14.2743 30.6963 13.4176 29.2896 12.5519 27.8828C12.2994 27.477 12.2904 27.477 12.0469 27.9008C10.9377 29.8216 9.82852 31.7424 8.71032 33.6632C6.75348 37.0629 4.78761 40.4625 2.82175 43.8532C2.57827 44.268 2.58729 44.277 3.07425 44.277C3.83173 44.286 4.59824 44.277 5.36475 44.277ZM40.7683 44.277C41.5168 44.277 42.2653 44.286 43.0138 44.277C43.1671 44.277 43.3835 44.3762 43.4646 44.1959C43.5278 44.0606 43.3654 43.9253 43.2933 43.7991C41.6881 41.0216 40.083 38.2442 38.4778 35.4667C37.026 32.9508 35.5651 30.4348 34.1042 27.9189C34.0231 27.7746 33.9419 27.3237 33.6534 27.7926C32.7426 29.2715 31.8318 30.7595 30.921 32.2294C30.8038 32.4187 30.8128 32.572 30.93 32.7614C31.3719 33.4558 31.7957 34.1591 32.2285 34.8625C34.0501 37.8203 35.8807 40.7782 37.6843 43.754C37.9278 44.1508 38.1983 44.3041 38.6582 44.286C39.3616 44.25 40.065 44.277 40.7683 44.277ZM29.7306 1.86667C27.9722 1.86667 26.2227 1.87569 24.4643 1.85765C24.1216 1.85765 23.9864 1.94783 23.9954 2.31756C24.0134 4.40065 24.0044 6.48374 23.9954 8.56684C23.9954 8.90049 24.1036 9.00871 24.4372 9.00871C27.9722 8.99969 31.5162 8.99969 35.0511 8.99969C35.1593 8.99969 35.3126 9.06281 35.3757 8.91853C35.4118 8.81032 35.2946 8.73818 35.2315 8.65702C34.6002 7.87247 33.978 7.08793 33.3467 6.30339C32.7877 5.60001 32.7877 5.25733 33.3558 4.55395C33.96 3.79646 34.5732 3.02996 35.1773 2.27247C35.2585 2.17327 35.4208 2.08309 35.3577 1.93881C35.2946 1.79453 35.1142 1.87569 34.988 1.87569C33.2385 1.85765 31.4891 1.86667 29.7306 1.86667Z" fill="#00C9FF"/>
<path d="M25.2219 31.057C25.6007 31.066 25.8622 31.3816 26.0876 31.7514C27.296 33.7172 28.5044 35.6831 29.7128 37.649C30.3801 38.7311 31.0474 39.8222 31.7147 40.9044C31.859 41.1388 31.9942 41.3733 31.9672 41.6619C31.9311 42.0496 31.7327 42.3382 31.354 42.4734C30.9843 42.6087 30.6326 42.5546 30.371 42.257C30.1636 42.0226 30.0013 41.752 29.839 41.4815C28.0445 38.5778 26.259 35.6651 24.4644 32.7523C24.3743 32.599 24.2751 32.4367 24.221 32.2744C24.0316 31.6702 24.4825 31.057 25.2219 31.057Z" fill="#00C9FF"/>
<path d="M23.0757 29.9388C22.5437 29.9388 22.1379 29.524 22.1469 28.992C22.1559 28.478 22.5527 28.0902 23.0667 28.0902C23.5987 28.0902 24.0045 28.505 23.9955 29.0371C23.9955 29.5421 23.5897 29.9388 23.0757 29.9388Z" fill="#00C9FF"/>
</svg>