<svg xmlns="http://www.w3.org/2000/svg" width="24" height="25" viewBox="0 0 24 25" fill="none">
  <path d="M23.104 11.1968C23.0668 13.1669 22.4349 14.7728 21.1339 16.0812C18.6433 18.5941 16.1304 21.0921 13.6176 23.5901C12.4727 24.7276 10.9635 24.7127 9.78883 23.5529C8.42088 22.2073 7.0678 20.8468 5.70729 19.4862C4.59955 18.3785 3.48438 17.2782 2.38408 16.163C0.889744 14.6538 0.213206 12.8324 0.361896 10.7135C0.547758 7.93304 2.60711 5.44249 5.31327 4.69904C5.49169 4.647 5.62551 4.57266 5.7296 4.4091C5.90059 4.14146 6.14593 3.95559 6.45818 3.88125C6.66634 3.82921 6.71095 3.71769 6.71095 3.52439C6.71838 2.81812 6.65147 2.11184 6.74812 1.413C6.83734 0.758763 7.20906 0.305259 7.83356 0.0970933C8.45805 -0.118507 9.02308 0.0301829 9.49888 0.491121C9.62527 0.610073 9.70705 0.647245 9.87061 0.558032C10.5546 0.193742 11.2609 0.305259 11.811 0.847977C11.9374 0.974363 12.0266 0.996666 12.1902 0.907453C12.8667 0.558032 13.5953 0.676983 14.1306 1.22714C14.257 1.35352 14.3313 1.34609 14.48 1.27174C15.5654 0.684418 16.8367 1.4353 16.8665 2.67686C16.8739 3.1378 16.8665 3.60617 16.8739 4.06711C16.8739 4.4537 16.8739 4.4537 17.2605 4.50574C18.4277 4.6693 19.476 5.10794 20.4053 5.82908C22.1747 7.22677 23.052 9.06309 23.104 11.1968ZM11.9523 14.6538C12.8593 14.6538 13.7663 14.639 14.6807 14.6613C14.9707 14.6687 15.0747 14.572 15.0971 14.297C15.1491 13.5907 15.2755 12.8993 15.4167 12.2079C15.5952 11.3083 15.8331 10.4162 15.8702 9.50172C15.9148 8.40885 15.8851 7.31598 15.9 6.22311C15.9 5.99264 15.8182 5.96291 15.6175 6.01495C15.1268 6.14877 14.6807 6.03725 14.2793 5.73987C14.1529 5.65066 14.0711 5.63579 13.9373 5.73244C13.4838 6.06699 12.9857 6.17107 12.4429 5.97777C12.3017 5.92573 12.2422 5.96291 12.205 6.10416C12.101 6.48332 11.8779 6.78813 11.5731 7.02604C11.4244 7.13755 11.4318 7.21933 11.5136 7.36802C11.8407 7.92561 11.9374 8.5278 11.8036 9.16717C11.7367 9.47942 11.4988 9.66528 11.2386 9.61324C10.9635 9.55376 10.8222 9.32329 10.8668 9.00361C10.9337 8.5055 10.8743 8.04456 10.562 7.62823C10.4505 7.47211 10.3167 7.39033 10.1159 7.39776C9.826 7.41263 9.54349 7.4052 9.25354 7.39776C8.90412 7.39033 8.68109 7.20446 8.68109 6.92195C8.68109 6.63944 8.89669 6.44615 9.24611 6.43871C9.6104 6.43128 9.96725 6.43871 10.3315 6.43871C10.8297 6.43128 11.1642 6.11159 11.1791 5.63579C11.1939 5.14511 10.8668 4.75108 10.3762 4.75108C9.28328 4.75108 8.19041 4.69904 7.09754 4.78082C6.56969 4.81799 6.43587 4.94438 6.35409 5.4871C6.24258 6.20081 6.23514 6.92939 6.25001 7.65053C6.27231 8.66162 6.50278 9.61324 7.03063 10.4831C7.41723 11.115 7.84843 11.7246 8.19041 12.3789C8.51753 13.0108 8.80748 13.665 8.86695 14.3936C8.88182 14.6018 8.97847 14.6761 9.19407 14.6687C10.1011 14.6464 11.023 14.6538 11.9523 14.6538ZM16.7921 19.0327C16.8888 18.951 16.9408 18.9138 16.9854 18.8692C18.1452 17.7094 19.3273 16.5645 20.4648 15.3824C21.9145 13.8658 22.4126 12.0369 21.974 9.9924C21.4684 7.62823 19.58 5.88113 17.1787 5.46479C16.9334 5.42019 16.8442 5.49453 16.8516 5.7473C16.8665 6.20081 16.8442 6.65431 16.859 7.10782C16.9111 8.80288 16.8144 10.4756 16.413 12.1335C16.2271 12.9067 16.1007 13.6948 16.0189 14.4903C16.0115 14.6018 15.9818 14.7059 16.123 14.7728C16.6434 15.0032 16.807 15.4344 16.7995 15.9697C16.7921 16.9659 16.7921 17.9696 16.7921 19.0327ZM11.9523 15.6277C10.7627 15.6277 9.58066 15.6352 8.39114 15.6203C8.1235 15.6203 8.03429 15.7095 8.03429 15.9772C8.04172 17.3972 8.04172 18.8097 8.03429 20.2297C8.03429 20.4007 8.09376 20.5271 8.21272 20.646C8.99334 21.4192 9.76652 22.2073 10.5546 22.9804C11.2162 23.6347 12.1902 23.6421 12.8518 22.9953C13.8035 22.0586 14.7476 21.1144 15.6918 20.1776C15.8108 20.0587 15.8628 19.9323 15.8628 19.7613C15.8554 18.5123 15.8628 17.2559 15.8628 16.0069C15.8628 15.6575 15.8331 15.6277 15.4762 15.6277C14.309 15.6277 13.1269 15.6277 11.9523 15.6277ZM7.08267 19.4788C7.08267 19.345 7.08267 19.2781 7.08267 19.2112C7.08267 18.0737 7.08267 16.9288 7.08267 15.7913C7.08267 15.4047 7.2388 15.0999 7.54361 14.8546C7.65513 14.7579 7.8856 14.7876 7.8856 14.5795C7.8856 14.4159 7.85586 14.2449 7.81125 14.0888C7.75921 13.8806 7.6923 13.6799 7.61796 13.4792C7.30571 12.6986 6.85964 11.9997 6.39127 11.3009C5.7742 10.3864 5.39504 9.37534 5.29096 8.26016C5.22405 7.55389 5.24635 6.85504 5.29096 6.14877C5.32813 5.68039 5.2984 5.67296 4.87463 5.85139C4.01966 6.22311 3.29108 6.76583 2.68889 7.47954C1.87853 8.46089 1.40272 9.5835 1.32838 10.8474C1.21686 12.6986 1.84879 14.2821 3.17213 15.5831C4.39882 16.8098 5.61808 18.0291 6.83734 19.2483C6.89681 19.3152 6.96372 19.3747 7.08267 19.4788ZM13.6027 3.36083C13.6027 3.03372 13.6027 2.71403 13.6027 2.38692C13.6027 2.37205 13.6027 2.34974 13.6027 2.33487C13.5879 1.94828 13.3128 1.66577 12.9634 1.6732C12.5916 1.68064 12.2942 1.95572 12.2868 2.34231C12.2794 3.02628 12.2794 3.71025 12.2868 4.39423C12.2942 4.78826 12.547 5.04103 12.9336 5.04103C13.3276 5.04846 13.5879 4.79569 13.6027 4.38679C13.6102 4.04481 13.6027 3.70282 13.6027 3.36083ZM15.8851 3.5913C15.8851 3.27905 15.8925 2.95937 15.8851 2.64712C15.8702 2.29027 15.5877 2.02263 15.2383 2.01519C14.8963 2.00776 14.5841 2.2754 14.5766 2.63225C14.5618 3.24932 14.5618 3.87381 14.5766 4.49088C14.5841 4.84773 14.8815 5.12281 15.2234 5.13024C15.5729 5.13768 15.8702 4.84773 15.8851 4.48344C15.8925 4.18606 15.8851 3.88868 15.8851 3.5913ZM7.7146 2.55791C7.70717 2.55791 7.70717 2.55791 7.7146 2.55791C7.7146 2.89246 7.7146 3.22701 7.70717 3.56156C7.70717 3.73999 7.77408 3.81434 7.95251 3.8069C8.22758 3.79947 8.5101 3.79947 8.78517 3.8069C8.97103 3.81434 9.03051 3.73999 9.02308 3.56156C9.01564 3.17497 9.02308 2.78094 9.01564 2.39435C9.00821 2.09697 9.05281 1.79959 8.9859 1.50965C8.90412 1.16023 8.65135 0.95206 8.3391 0.974363C7.95994 1.0041 7.72204 1.23457 7.70717 1.61373C7.69974 1.92598 7.7146 2.23823 7.7146 2.55791ZM11.3129 2.87759C11.3129 2.58021 11.3129 2.28283 11.3129 1.98545C11.3129 1.97058 11.3129 1.94828 11.3129 1.93341C11.2832 1.56169 11.0155 1.32378 10.6512 1.32378C10.2349 1.33122 9.97469 1.60629 9.95982 2.06723C9.94495 2.55791 9.96725 3.04859 9.95239 3.53926C9.94495 3.75486 10.0342 3.81434 10.2349 3.8069C10.5397 3.7846 10.8445 3.81434 11.1345 3.94072C11.3055 4.01507 11.3203 3.93329 11.3203 3.79947C11.3129 3.48722 11.3129 3.18241 11.3129 2.87759Z" fill="#01053A"/>
</svg>