<svg xmlns="http://www.w3.org/2000/svg" width="22" height="24" viewBox="0 0 22 24" fill="none">
<path d="M6.35822 23.2557C6.02283 23.1306 5.69313 22.9942 5.44869 22.727C5.11898 22.3689 4.93707 21.9482 4.93707 21.4537C4.94276 20.2258 4.93707 19.0036 4.93707 17.7757C4.93707 17.4631 4.93707 17.4631 4.63011 17.4631C3.59551 17.4631 2.55523 17.4347 1.52063 17.4745C0.787317 17.4972 0.0085269 17.0311 0.0085269 16.0078C-0.0028423 13.8534 -0.0028423 11.6932 0.0085269 9.53876C0.0142115 8.56101 0.582671 8.04371 1.55474 8.04371C2.58365 8.04371 3.61256 8.03802 4.64147 8.04939C4.86886 8.04939 4.93707 7.99255 4.93707 7.75948C4.9257 5.79261 4.93139 3.82574 4.93139 1.85886C4.93707 0.966382 5.46574 0.28423 6.31275 0.0511614C6.46623 0.0056846 6.6254 0.0056846 6.78457 0.0056846C9.67235 0.0056846 12.5658 0.0056846 15.4536 0C15.6867 0 15.8572 0.0795844 16.0107 0.244438C17.9207 2.23405 19.8364 4.22366 21.7521 6.21327C21.8715 6.33833 21.9454 6.48044 21.9624 6.65667C21.9681 6.74762 21.9738 6.83857 21.9738 6.92953C21.9738 11.6875 21.9738 16.4455 21.9738 21.2036C21.9738 21.7493 21.8772 22.2552 21.4963 22.6759C21.2291 22.9771 20.8881 23.1363 20.5186 23.2614C15.8003 23.2557 11.0764 23.2557 6.35822 23.2557ZM21.0074 14.4559C21.0074 12.1309 21.0018 9.81162 21.0131 7.48662C21.0131 7.25923 20.9506 7.19102 20.7175 7.19102C19.2736 7.20239 17.8297 7.1967 16.3859 7.1967C16.0277 7.1967 15.6753 7.20239 15.3172 7.1967C14.9647 7.19102 14.7885 7.02048 14.7544 6.67372C14.743 6.58277 14.7487 6.49181 14.7487 6.40086C14.7487 4.67842 14.743 2.95031 14.7544 1.22787C14.7544 0.994805 14.6862 0.932274 14.4588 0.932274C11.9348 0.937959 9.40517 0.937959 6.88121 0.937959C6.21611 0.937959 5.87503 1.27903 5.87503 1.94413C5.87503 3.87121 5.87503 5.80398 5.87503 7.73105C5.87503 8.03802 5.87503 8.03802 6.18769 8.03802C8.56385 8.03802 10.94 8.03802 13.3162 8.03802C14.2484 8.03802 14.8169 8.60648 14.8169 9.53876C14.8169 11.6819 14.7999 13.8193 14.8226 15.9624C14.834 16.8378 14.1859 17.4858 13.3048 17.4745C10.9286 17.446 8.55248 17.4631 6.182 17.4631C5.88072 17.4631 5.88072 17.4631 5.88072 17.7587C5.88072 18.9297 5.88072 20.1064 5.88072 21.2775C5.88072 22.0221 6.19905 22.3405 6.94374 22.3405C11.2868 22.3405 15.6298 22.3348 19.9672 22.3462C20.5868 22.3462 21.0302 21.9937 21.0245 21.2888C20.9961 19.0093 21.0074 16.7355 21.0074 14.4559ZM7.41556 16.5251C9.36538 16.5251 11.3152 16.5251 13.2707 16.5251C13.7311 16.5251 13.8789 16.3716 13.8789 15.9112C13.8789 13.8079 13.8789 11.7046 13.8789 9.60697C13.8789 9.13515 13.7198 8.97598 13.2536 8.97598C9.35969 8.97598 5.46574 8.97598 1.57179 8.97598C1.10565 8.97598 0.969224 9.1181 0.969224 9.58992C0.969224 11.6989 0.969224 13.8079 0.969224 15.9169C0.969224 16.4058 1.09429 16.5308 1.58885 16.5308C3.52729 16.5308 5.47143 16.5308 7.41556 16.5251ZM15.7264 1.31314C15.7208 1.40978 15.7094 1.45526 15.7094 1.49505C15.7094 2.9901 15.7094 4.49083 15.7037 5.98588C15.7037 6.19621 15.789 6.24169 15.9766 6.236C17.392 6.23032 18.8018 6.236 20.2173 6.23032C20.2798 6.23032 20.3537 6.25874 20.4106 6.17347C18.8643 4.57042 17.3124 2.96168 15.7264 1.31314Z" fill="#01053A"/>
<path d="M6.21017 12.8361C6.21017 12.2846 6.21585 11.7332 6.20448 11.1818C6.1988 10.9829 6.25564 10.8919 6.47166 10.9033C6.92642 10.9147 7.38119 10.9033 7.83028 10.9147C8.6716 10.9317 9.21163 11.3581 9.39354 12.1823C9.52429 12.7735 9.5186 13.3647 9.25711 13.9332C9.00699 14.4846 8.56359 14.7461 7.98944 14.7802C7.46078 14.8086 6.93211 14.7859 6.40344 14.7916C6.2329 14.7916 6.20448 14.7063 6.20448 14.5642C6.21017 13.9843 6.21017 13.4102 6.21017 12.8361ZM7.0458 12.819C7.0458 13.1658 7.0458 13.5125 7.0458 13.865C7.0458 13.8707 7.0458 13.882 7.0458 13.8877C7.03443 14.0355 7.10265 14.0924 7.24476 14.0867C7.44372 14.081 7.637 14.0867 7.83596 14.081C8.25094 14.0696 8.47832 13.8707 8.56359 13.4727C8.63749 13.1373 8.63749 12.7963 8.5977 12.4552C8.53517 11.864 8.24525 11.6195 7.65405 11.6082C7.53468 11.6082 7.40962 11.6139 7.29024 11.6025C7.08559 11.5798 7.02875 11.6707 7.03443 11.864C7.05149 12.1823 7.0458 12.5007 7.0458 12.819Z" fill="#01053A"/>
<path d="M3.69175 10.9051C3.9703 10.9165 4.31137 10.8937 4.65245 10.9449C5.26639 11.0359 5.68136 11.5418 5.6302 12.15C5.5563 12.9232 5.13564 13.3154 4.35685 13.3324C4.13515 13.3381 3.91914 13.3438 3.69744 13.3324C3.52121 13.3211 3.453 13.3836 3.45868 13.5655C3.47005 13.8952 3.45868 14.2306 3.46437 14.5603C3.47005 14.7252 3.40752 14.7934 3.24267 14.7877C2.53209 14.7706 2.63442 14.8843 2.62873 14.2022C2.62305 13.196 2.63442 12.1898 2.62305 11.1893C2.62305 10.9733 2.68558 10.8881 2.90728 10.8994C3.15171 10.9165 3.39047 10.9051 3.69175 10.9051ZM3.46437 12.1159C3.46437 12.2353 3.46437 12.3547 3.46437 12.4798C3.46437 12.565 3.49848 12.6332 3.58943 12.6332C3.86229 12.6332 4.13515 12.6673 4.39664 12.5934C4.65245 12.5252 4.76614 12.3604 4.75477 12.0932C4.7434 11.8488 4.61834 11.6953 4.35685 11.6498C4.23179 11.6271 4.10104 11.6157 3.97598 11.6157C3.37341 11.61 3.47574 11.5361 3.46437 12.1159Z" fill="#01053A"/>
<path d="M10.0812 12.8428C10.0812 12.2914 10.0869 11.74 10.0755 11.1886C10.0699 10.9783 10.1324 10.893 10.3598 10.8987C11.076 10.9101 11.798 10.9101 12.5142 10.8987C12.7132 10.8987 12.7757 10.9669 12.7757 11.1602C12.77 11.6036 12.7814 11.6036 12.338 11.6036C11.9401 11.6036 11.5365 11.6093 11.1386 11.6036C10.9737 11.5979 10.9169 11.6548 10.9112 11.8253C10.9055 12.4506 10.8998 12.4506 11.5251 12.4506C11.7752 12.4506 12.0254 12.4563 12.2755 12.4506C12.4574 12.4449 12.537 12.5074 12.537 12.695C12.5483 13.1498 12.554 13.1498 12.1106 13.1498C11.7866 13.1498 11.4626 13.1555 11.1329 13.1498C10.9623 13.1441 10.9112 13.2066 10.9112 13.3715C10.9225 13.7637 10.9055 14.156 10.9169 14.5482C10.9225 14.7301 10.8543 14.787 10.6781 14.7813C10.0016 14.7642 10.0869 14.8836 10.0812 14.2015C10.0755 13.7524 10.0812 13.2976 10.0812 12.8428Z" fill="#01053A"/>
</svg>