<svg xmlns="http://www.w3.org/2000/svg" width="22" height="25" viewBox="0 0 22 25" fill="none">
  <path d="M11.7238 20.0197C10.8735 20.0197 10.0167 20.0264 9.16642 20.0131C8.94058 20.0131 8.77452 20.0795 8.62174 20.2456C8.34276 20.5445 8.05714 20.8301 7.75823 21.1091C7.62538 21.2353 7.61209 21.3216 7.75823 21.4478C7.95086 21.6073 8.11028 21.7999 8.18334 22.0457C8.29626 22.4044 8.24312 22.7431 8.004 23.0287C7.62538 23.4804 7.2069 23.8989 6.76186 24.2775C6.31682 24.6561 5.719 24.5964 5.2806 24.158C3.93218 22.8095 2.58376 21.4611 1.23535 20.1194C1.10914 19.9931 0.989578 19.8736 0.870014 19.7474C0.418329 19.2758 0.418329 18.658 0.870014 18.193C1.20214 17.8543 1.53426 17.5222 1.87302 17.19C2.37785 16.6919 2.9956 16.6919 3.50042 17.1834C3.78605 17.4624 3.78605 17.4624 4.07831 17.1768C5.08132 16.1737 6.08433 15.1774 7.0807 14.1677C7.57224 13.6695 8.15013 13.4238 8.86087 13.4304C10.4019 13.4503 11.943 13.457 13.484 13.4304C14.6664 13.4038 15.2575 14.5663 14.8856 15.5029C14.859 15.5693 14.7793 15.6357 14.8457 15.7021C14.8988 15.7553 14.9852 15.7221 15.0583 15.7088C15.3904 15.6357 15.6627 15.463 15.9085 15.2172C16.7587 14.3604 17.6156 13.5035 18.4725 12.6532C19.0902 12.0421 19.9604 11.9824 20.618 12.5005C21.3553 13.0784 21.4417 14.1677 20.7708 14.8519C19.9936 15.649 19.2031 16.4262 18.4193 17.21C17.795 17.8344 17.1506 18.4521 16.5395 19.0964C15.9218 19.7474 15.1712 20.033 14.2944 20.0264C13.4309 20.0197 12.574 20.0197 11.7238 20.0197ZM11.6839 19.3621C12.5607 19.3621 13.4375 19.3488 14.321 19.3621C15.0051 19.3754 15.5697 19.1363 16.0546 18.6447C17.0311 17.6417 18.0341 16.6653 19.0238 15.6756C19.4423 15.2571 19.8608 14.8453 20.2726 14.4268C20.6446 14.0415 20.6645 13.5035 20.3257 13.1249C19.9537 12.7064 19.3426 12.7064 18.9175 13.1249C18.0606 13.9685 17.2104 14.812 16.3735 15.6756C15.8819 16.1737 15.304 16.3996 14.6132 16.3996C13.1984 16.3996 11.7835 16.3996 10.3621 16.3996C10.2624 16.3996 10.1628 16.3996 10.0698 16.373C9.91702 16.3332 9.83067 16.2202 9.83067 16.0608C9.83067 15.9014 9.92366 15.7951 10.0764 15.7553C10.1694 15.7353 10.2757 15.7353 10.3753 15.7353C11.4249 15.7353 12.481 15.7353 13.5305 15.7287C13.9291 15.7287 14.1682 15.556 14.2944 15.2106C14.5069 14.6061 14.1283 14.0747 13.4574 14.0681C11.9031 14.0614 10.3421 14.0614 8.7878 14.0681C8.36933 14.0681 7.99071 14.1943 7.68516 14.4998C6.5958 15.5892 5.50644 16.6786 4.41044 17.7613C4.28423 17.8875 4.29751 17.9672 4.41708 18.0868C5.26067 18.9436 6.11754 19.8005 6.96778 20.6574C7.09398 20.7836 7.16705 20.777 7.28661 20.6574C7.61873 20.312 7.97078 19.9865 8.30291 19.6345C8.48889 19.4352 8.68817 19.3555 8.96051 19.3555C9.86388 19.3688 10.7739 19.3621 11.6839 19.3621ZM2.67676 17.4889C2.53727 17.4757 2.42435 17.5421 2.33135 17.6417C2.01251 17.9672 1.68703 18.286 1.3682 18.6115C1.12243 18.8639 1.11578 19.0765 1.36156 19.3223C2.81625 20.7836 4.27759 22.2383 5.73228 23.693C5.95812 23.9188 6.17732 23.9321 6.40981 23.7129C6.76186 23.3808 7.10062 23.042 7.4261 22.6966C7.63866 22.4641 7.62538 22.2449 7.40618 22.0191C5.95148 20.5578 4.49014 19.1031 3.03545 17.6417C2.93581 17.5487 2.82289 17.4823 2.67676 17.4889Z" fill="#01053A"/>
  <path d="M17.9479 5.69873C17.9811 5.9445 17.8482 6.06407 17.6423 6.15042C17.5095 6.20356 17.3434 6.22349 17.2571 6.35634C17.1375 6.54232 17.1906 6.76817 17.3833 6.9143C17.815 7.24642 17.8217 7.28628 17.6091 7.78446C17.463 8.12322 17.2703 8.42878 17.0445 8.7144C16.8851 8.92032 16.7057 8.9801 16.46 8.86054C16.2607 8.7609 16.0481 8.62805 15.8289 8.86718C15.7492 8.95353 15.6961 9.01995 15.7227 9.14616C15.7492 9.26572 15.7492 9.39193 15.7625 9.51814C15.7824 9.6842 15.7094 9.8104 15.5566 9.88347C15.0983 10.1093 14.6067 10.2355 14.1019 10.2754C13.8296 10.2953 13.7432 10.0761 13.6701 9.87019C13.6037 9.6842 13.5307 9.53142 13.2849 9.51814C13.1388 9.51149 13.059 9.54471 12.9727 9.65099C12.5675 10.1558 12.5609 10.1558 11.9697 9.88347C11.6841 9.75062 11.4184 9.57792 11.1726 9.38529C10.8936 9.16609 10.8803 9.08638 11.0065 8.74761C11.0663 8.5882 11.2124 8.4487 11.073 8.24279C10.9268 8.02359 10.7342 8.03687 10.5283 8.06344C10.143 8.11658 10.0699 8.07673 9.91717 7.72468C9.77103 7.38591 9.6714 7.04051 9.6249 6.67517C9.56512 6.19692 9.58505 6.15042 10.0434 5.97107C10.2227 5.89801 10.3356 5.81166 10.3556 5.60574C10.3689 5.47953 10.3489 5.3799 10.2426 5.30019C10.1563 5.24041 10.0699 5.16734 9.98359 5.10091C9.82417 4.98135 9.77768 4.82193 9.8441 4.63594C10.0035 4.17097 10.2559 3.7525 10.5748 3.37388C10.7408 3.17461 10.9401 3.22775 11.1394 3.3141C11.3254 3.39381 11.5047 3.50673 11.704 3.3141C11.8036 3.21446 11.8435 3.14139 11.8235 2.99526C11.7438 2.37751 11.7771 2.33102 12.3749 2.11846C12.6339 2.02546 12.8996 1.96568 13.1653 1.91919C13.617 1.83948 13.7166 1.89262 13.8827 2.31109C13.9558 2.49708 14.0355 2.64985 14.2813 2.64321C14.4075 2.63657 14.5071 2.61664 14.5735 2.50372C14.6333 2.41737 14.6997 2.33102 14.7728 2.24467C14.8924 2.09853 15.0318 2.05868 15.2178 2.1251C15.6828 2.2978 16.1013 2.54358 16.4799 2.85577C16.6194 2.96869 16.6526 3.11482 16.5928 3.28089C16.5596 3.38052 16.5264 3.4868 16.4733 3.5798C16.3803 3.73921 16.4467 3.85214 16.5397 3.98498C16.6393 4.12448 16.7589 4.13776 16.905 4.11119C17.0113 4.09126 17.1176 4.08462 17.2239 4.07798C17.3833 4.06469 17.4962 4.13776 17.5626 4.27725C17.7818 4.74222 17.908 5.20719 17.9479 5.69873ZM16.553 4.82193C16.2673 4.86179 16.2009 4.5828 16.0349 4.42339C15.7293 4.11783 15.5832 3.80564 15.8422 3.39381C15.9352 3.24103 15.8024 3.16132 15.6894 3.10818C15.4968 3.02847 15.3573 2.7827 15.0983 2.90227C15.085 2.90891 15.0717 2.92219 15.0651 2.93548C14.8525 3.3606 14.5137 3.4403 14.0886 3.28089C14.0621 3.2676 14.0222 3.2676 13.989 3.27424C13.6768 3.30746 13.4709 3.16132 13.3978 2.86905C13.3247 2.58343 13.1653 2.54358 12.9196 2.63657C12.8863 2.64985 12.8531 2.6565 12.8266 2.66314C12.4347 2.76942 12.4214 2.7827 12.4944 3.17461C12.5409 3.41373 12.4679 3.5798 12.2686 3.69936C12.1889 3.74586 12.1025 3.79235 12.0494 3.85878C11.7771 4.16433 11.4715 4.24404 11.1062 4.0182C10.9932 3.95177 10.9002 3.97834 10.8338 4.09791C10.7475 4.25068 10.6611 4.40346 10.5748 4.54959C10.5216 4.64259 10.5349 4.72894 10.6279 4.78208C11.0198 4.99464 11.1194 5.30683 10.98 5.71866C10.9534 5.79173 10.9667 5.88472 10.96 5.96443C10.9534 6.18363 10.8471 6.32977 10.6346 6.41612C10.2227 6.59546 10.2227 6.60211 10.3489 7.04051C10.3689 7.10693 10.3954 7.16671 10.4087 7.23314C10.4353 7.35934 10.5083 7.41248 10.6412 7.38591C10.7275 7.36599 10.8272 7.37263 10.9135 7.35934C11.1128 7.31285 11.2523 7.38591 11.3586 7.55197C11.4117 7.63833 11.4582 7.73132 11.5313 7.79775C11.8634 8.08337 11.9365 8.40221 11.6973 8.78083C11.6176 8.90703 11.6907 8.98674 11.797 9.03988C12.0029 9.13288 12.1557 9.372 12.428 9.29229C12.4479 9.28565 12.4679 9.25908 12.4745 9.23915C12.6738 8.85389 12.986 8.75426 13.3845 8.88046C13.431 8.89375 13.4842 8.89375 13.5307 8.89375C13.8561 8.88711 14.0687 9.03324 14.1484 9.35208C14.2082 9.5912 14.3477 9.63106 14.5536 9.55799C14.6134 9.53806 14.6798 9.52478 14.7462 9.50485C15.0916 9.40522 15.1049 9.39193 15.0385 9.03988C14.992 8.78083 15.0584 8.59484 15.2975 8.45535C15.437 8.37564 15.5699 8.26272 15.6894 8.14979C15.8422 8.0103 15.995 7.98373 16.1876 8.06344C16.6393 8.24279 16.6393 8.23615 16.8718 7.80439C16.8851 7.77782 16.8984 7.74461 16.9183 7.71804C17.0179 7.5719 17.0179 7.4457 16.8452 7.3527C16.5131 7.17336 16.4068 6.90102 16.5463 6.54232C16.5596 6.50247 16.5663 6.46261 16.5663 6.42276C16.5198 6.02421 16.6991 5.79837 17.0777 5.69873C17.1641 5.67881 17.2703 5.64559 17.2571 5.52603C17.2305 5.29355 17.1973 5.05442 17.0644 4.86179C16.9515 4.70237 16.7722 4.86179 16.6194 4.84186C16.6127 4.81529 16.5928 4.81529 16.553 4.82193Z" fill="#01053A"/>
  <path d="M9.36595 1.83284C9.17996 1.83284 9.0139 1.83949 8.85448 1.83284C8.65521 1.81956 8.52236 1.72656 8.51572 1.51401C8.50907 1.29481 8.64857 1.18853 8.8412 1.18188C9.31281 1.18188 9.78442 1.19517 10.256 1.22838C10.4553 1.24167 10.5749 1.3878 10.5549 1.58707C10.5151 2.06533 10.462 2.54359 10.4088 3.02184C10.3822 3.22776 10.2892 3.38718 10.0435 3.38053C9.85085 3.37389 9.75121 3.22111 9.75785 2.96206C9.7645 2.796 9.78442 2.62329 9.80435 2.39081C9.36595 2.85578 9.05375 3.32739 8.82127 3.85215C7.36657 7.12687 9.33938 10.8334 12.8665 11.4445C13.564 11.564 14.2681 11.5441 14.9655 11.3847C15.0253 11.3714 15.0784 11.3581 15.1382 11.3448C15.3508 11.2983 15.4969 11.3714 15.5633 11.5773C15.6165 11.75 15.5036 11.9161 15.2844 11.9759C14.8659 12.0888 14.4408 12.1552 14.009 12.1685C10.9269 12.2947 8.21681 10.0562 7.75848 7.01395C7.47285 5.10757 8.01089 3.44696 9.25967 1.9989C9.28624 1.96569 9.31281 1.93248 9.33938 1.90591C9.35266 1.89927 9.35266 1.88598 9.36595 1.83284Z" fill="#01053A"/>
  <path d="M18.18 10.302C18.3793 10.3219 18.552 10.3286 18.7247 10.3485C18.924 10.3751 19.0568 10.4747 19.0435 10.6873C19.0302 10.8998 18.8908 10.9862 18.6848 10.9862C18.273 10.9862 17.8545 10.9862 17.4427 10.9662C17.0707 10.9463 16.9644 10.8002 17.0109 10.4348C17.0574 10.0496 17.0907 9.66432 17.1305 9.27241C17.1372 9.1927 17.1504 9.10635 17.1704 9.02664C17.2169 8.86722 17.3364 8.77423 17.5025 8.78751C17.6818 8.8008 17.7748 8.92701 17.7948 9.10635C17.8147 9.30562 17.7217 9.49826 17.7615 9.73074C17.9409 9.61118 18.0405 9.44512 18.1468 9.29898C20.5514 6.05747 18.645 1.38119 14.6595 0.730234C13.9554 0.617312 13.258 0.63724 12.5672 0.790016C12.4874 0.809943 12.4077 0.82987 12.3214 0.836513C12.1354 0.849798 12.0092 0.763446 11.976 0.5841C11.9361 0.404754 12.0291 0.271905 12.1952 0.218766C12.5339 0.105844 12.886 0.0527048 13.2447 0.0194926C15.7954 -0.179781 18.1402 1.16199 19.2561 3.44035C20.3322 5.64564 19.9469 8.3159 18.3062 10.1359C18.2597 10.1891 18.2332 10.2289 18.18 10.302Z" fill="#01053A"/>
  <path d="M3.08176 19.6878C2.99541 19.6878 2.9157 19.6612 2.85592 19.6014C2.70314 19.4486 2.54372 19.3025 2.39759 19.1431C2.2581 18.9903 2.2581 18.8242 2.39759 18.6781C2.53708 18.5386 2.70314 18.5585 2.84263 18.6847C3.01533 18.8442 3.17475 19.0102 3.32753 19.1763C3.41388 19.2759 3.42717 19.4021 3.36074 19.5217C3.3076 19.6346 3.20796 19.6944 3.08176 19.6878Z" fill="#01053A"/>
  <path d="M13.7627 8.30281C12.5471 8.30281 11.5508 7.30644 11.5508 6.08423C11.5508 4.86867 12.5737 3.84573 13.7694 3.85901C14.9982 3.8723 16.0012 4.88859 15.9946 6.10416C15.9946 7.31308 14.9849 8.30281 13.7627 8.30281ZM13.776 7.63856C14.6528 7.63856 15.337 6.96103 15.337 6.08423C15.337 5.21407 14.6462 4.52326 13.776 4.52326C12.9058 4.52326 12.2217 5.21407 12.2217 6.09087C12.2217 6.97432 12.8859 7.63856 13.776 7.63856Z" fill="#01053A"/>
  <path d="M12.8931 5.79172C13.0857 5.79837 13.1787 5.93786 13.2651 6.08399C13.4245 6.3364 13.4245 6.3364 13.6437 6.12384C13.8961 5.87143 14.1419 5.61902 14.4009 5.36661C14.5936 5.18062 14.7795 5.16733 14.919 5.32011C15.0519 5.4596 15.0386 5.63895 14.8593 5.82494C14.4673 6.22348 14.0688 6.62203 13.6636 7.02057C13.4311 7.24642 13.2319 7.22649 13.0525 6.95415C12.9064 6.73495 12.7536 6.51575 12.6274 6.28326C12.5012 6.05742 12.654 5.79837 12.8931 5.79172Z" fill="#01053A"/>
</svg>