<svg xmlns="http://www.w3.org/2000/svg" width="25" height="25" viewBox="0 0 25 25" fill="none">
  <path d="M12.5879 0C12.8285 0.130049 12.9261 0.344629 12.9261 0.604726C12.9261 1.26147 12.9261 1.91822 12.9261 2.57496C12.9261 2.65299 12.9131 2.73752 12.8935 2.81555C12.8285 3.06264 12.6009 3.2057 12.3343 3.17969C12.0937 3.15368 11.8987 2.96511 11.8987 2.70501C11.8922 1.95723 11.8922 1.21595 11.8987 0.468175C11.8987 0.247092 12.0352 0.117044 12.2043 0C12.3343 0 12.4579 0 12.5879 0Z" fill="#01053A"/>
  <path d="M12.9913 19.5788C12.5296 19.5788 12.068 19.5788 11.6063 19.5788C11.3267 19.5788 11.0926 19.6633 10.891 19.8714C10.4033 20.3786 9.89615 20.8727 9.39546 21.3669C9.26541 21.4905 9.2394 21.5945 9.31093 21.7701C9.58403 22.4593 9.45398 23.0771 8.94029 23.6038C8.65419 23.9029 8.36158 24.1955 8.06246 24.4816C7.45774 25.0538 6.5539 25.1058 5.90366 24.5856C5.44849 24.2215 5.05184 23.7858 4.65519 23.3567C4.44061 23.1226 4.46662 22.8365 4.6812 22.6349C4.88278 22.4463 5.18189 22.4463 5.40297 22.6609C5.7346 22.9795 6.05972 23.3112 6.38484 23.6363C6.74247 23.9874 7.0936 23.9874 7.44473 23.6428C7.67882 23.4152 7.90641 23.1876 8.13399 22.9535C8.49813 22.5829 8.49813 22.2773 8.13399 21.9131C6.51489 20.2875 4.89578 18.6619 3.27668 17.0363C3.23766 16.9973 3.19865 16.9583 3.15313 16.9128C2.64594 16.4121 2.39235 16.4186 1.89166 16.9193C1.68359 17.1273 1.47551 17.3289 1.27393 17.537C0.968318 17.8556 0.968318 18.2133 1.27393 18.5254C1.60556 18.87 1.95669 19.1951 2.28831 19.5462C2.58742 19.8649 2.45737 20.3265 2.04772 20.4306C1.85265 20.4761 1.69009 20.4046 1.56004 20.2745C1.1829 19.9039 0.799255 19.5462 0.441622 19.1561C-0.156601 18.4929 -0.137094 17.524 0.480637 16.8868C0.773246 16.5811 1.07236 16.282 1.37797 15.9959C1.84615 15.5538 2.39885 15.4107 3.01658 15.5993C3.18565 15.6513 3.28318 15.6188 3.40023 15.5017C3.81638 15.0791 4.23254 14.6564 4.65519 14.2468C4.77874 14.1297 4.79174 14.0517 4.6747 13.9086C3.94643 13.0113 4.18702 11.8279 5.2079 11.2622C5.35095 11.1841 5.35746 11.1191 5.29243 10.9826C4.85027 10.0202 5.26642 8.99281 6.24829 8.60917C6.37834 8.55715 6.43686 8.51814 6.41735 8.34907C6.30031 7.51026 6.72947 6.78199 7.51626 6.46987C7.67882 6.40485 7.71784 6.33332 7.69183 6.16426C7.51626 5.01983 8.58916 4.01196 9.72058 4.25905C9.88965 4.29806 10.0132 4.27205 10.1627 4.16801C10.5009 3.92742 10.904 3.94043 11.2877 4.00545C12.4126 4.20053 13.5375 4.42161 14.6559 4.62969C14.76 4.64919 14.864 4.6557 14.968 4.6557C16.0279 4.6687 16.8082 5.55303 16.6717 6.61293C16.6522 6.77549 16.6847 6.83401 16.8342 6.89253C17.6405 7.21115 18.0372 7.86789 17.9527 8.73272C17.9331 8.91478 17.9787 8.97981 18.1477 9.04483C18.9085 9.32444 19.3507 10.0852 19.2336 10.9045C19.2141 11.0411 19.2401 11.1061 19.3767 11.1646C20.5861 11.6783 20.9048 12.9138 20.092 13.9477C20.0139 14.0452 20.0074 14.1037 20.0985 14.1948C20.5601 14.6499 21.0153 15.1116 21.477 15.5733C21.5485 15.6513 21.62 15.6513 21.7176 15.6123C22.4523 15.3262 23.0831 15.4952 23.6228 16.0544C23.8504 16.2885 24.0844 16.5161 24.312 16.7437C25.0858 17.524 25.0858 18.4994 24.3055 19.2796C23.6293 19.9559 22.953 20.6322 22.2768 21.3084C21.2754 22.3098 20.2675 23.3177 19.2661 24.319C18.4793 25.1058 17.5235 25.1188 16.7237 24.3515C16.4246 24.0654 16.1255 23.7728 15.8589 23.4607C15.4297 22.9665 15.3387 22.3878 15.5793 21.7766C15.6313 21.64 15.6183 21.5555 15.5142 21.458C14.9485 20.8988 14.3828 20.3395 13.8236 19.7738C13.7196 19.6633 13.6025 19.6243 13.4595 19.6308C13.3034 19.6438 13.1539 19.6308 12.9978 19.6308C12.9913 19.6113 12.9913 19.5983 12.9913 19.5788ZM13.3359 8.1475C13.3359 8.98631 12.7377 9.70158 11.9119 9.84463C11.7428 9.87064 11.6388 9.90965 11.5998 10.1112C11.4502 10.9305 10.9625 11.4182 10.1432 11.5613C9.99368 11.5873 9.91566 11.6523 9.88965 11.8084C9.74659 12.6407 9.24591 13.1284 8.4201 13.2779C8.27054 13.3039 8.19901 13.3689 8.17301 13.525C7.98443 14.6824 6.85301 15.3132 5.77361 14.8515C5.63056 14.7865 5.53952 14.806 5.43548 14.9165C5.02583 15.3327 4.61618 15.7488 4.19352 16.152C4.05697 16.2885 4.06347 16.3666 4.19352 16.5031C5.57854 17.8751 6.95055 19.2471 8.32906 20.6322C8.47212 20.7752 8.55015 20.7557 8.68019 20.6257C9.19389 20.099 9.72058 19.5788 10.2408 19.0586C10.4814 18.8115 10.7675 18.6619 11.1056 18.5969C11.4567 18.5319 11.8144 18.5189 12.172 18.5579C12.5426 18.5969 12.9198 18.5904 13.2904 18.5969C13.7716 18.6099 14.1812 18.4603 14.4934 18.0832C14.5649 17.9987 14.6494 17.9206 14.734 17.8426C14.9745 17.641 15.2802 17.6475 15.4752 17.8556C15.6638 18.0572 15.6638 18.3563 15.4492 18.5774C15.2672 18.7725 15.0786 18.961 14.8705 19.1366C14.76 19.2276 14.7535 19.2796 14.8575 19.3837C15.2997 19.8128 15.7353 20.2485 16.1645 20.6907C16.2685 20.8012 16.3335 20.7947 16.4376 20.6907C17.8421 19.2862 19.2466 17.8816 20.6577 16.4771C20.7552 16.3861 20.7617 16.321 20.6642 16.2235C20.235 15.8074 19.8058 15.3847 19.3832 14.9555C19.2596 14.8255 19.1751 14.845 19.0711 14.9685C18.9735 15.0791 18.876 15.1831 18.7264 15.2351C18.4989 15.3132 18.2518 15.2221 18.1282 15.0271C18.0047 14.832 18.0177 14.5784 18.1932 14.4028C18.5444 14.0387 18.9085 13.6941 19.2531 13.3299C19.5588 13.0113 19.5653 12.5756 19.2857 12.309C18.9995 12.0294 18.5899 12.049 18.2648 12.3611C18.1672 12.4586 18.0697 12.5561 17.9722 12.6537C17.6991 12.9203 17.3739 12.9528 17.1594 12.7252C16.9318 12.4846 16.9578 12.205 17.2439 11.9124C17.4975 11.6588 17.7511 11.4117 17.9982 11.1516C18.2778 10.8525 18.2778 10.4298 18.0112 10.1698C17.7381 9.90315 17.3219 9.90965 17.0228 10.1893C16.8667 10.3323 16.7237 10.4884 16.5676 10.6314C16.4376 10.755 16.288 10.833 16.106 10.8005C15.9044 10.768 15.7548 10.6639 15.6898 10.4689C15.6248 10.2738 15.6573 10.0787 15.8069 9.92916C16.0865 9.64305 16.3661 9.36995 16.6457 9.08385C16.9838 8.73922 17.0098 8.32957 16.7107 8.03045C16.4311 7.75085 15.9954 7.78336 15.6703 8.10198C15.5468 8.21902 15.4297 8.34257 15.3062 8.45961C15.0396 8.71971 14.76 8.74572 14.5324 8.52464C14.2983 8.30356 14.3113 8.00444 14.5779 7.73134C14.8575 7.44524 15.1436 7.17213 15.4167 6.88603C15.6963 6.58692 15.6963 6.13825 15.4232 5.87815C15.1566 5.62456 14.7209 5.63756 14.4348 5.91066C14.0187 6.32032 13.609 6.73647 13.1929 7.14612C13.1018 7.23066 13.0888 7.30868 13.1409 7.42573C13.2839 7.64681 13.3359 7.8939 13.3359 8.1475ZM16.4961 22.3618C16.4766 22.5569 16.5546 22.7129 16.6847 22.843C16.9513 23.1161 17.2179 23.3892 17.491 23.6493C17.7966 23.9419 18.1607 23.9419 18.4598 23.6428C20.183 21.9261 21.8996 20.2095 23.6163 18.4864C23.9219 18.1807 23.9219 17.8166 23.6098 17.498C23.3627 17.2444 23.1091 16.9908 22.849 16.7437C22.5174 16.4251 22.1792 16.4316 21.8476 16.7567C21.503 17.0948 21.1583 17.446 20.8137 17.7841C19.4612 19.1366 18.1087 20.4891 16.7562 21.8416C16.6197 21.9847 16.4831 22.1342 16.4961 22.3618ZM7.43823 8.12799C7.42523 8.32957 7.54877 8.49213 7.70483 8.64818C8.25103 9.19439 8.79074 9.73409 9.33694 10.2803C9.40196 10.3453 9.47999 10.4103 9.56452 10.4559C9.86364 10.6184 10.2083 10.5599 10.4228 10.3063C10.6374 10.0527 10.6504 9.65606 10.4163 9.41547C9.80511 8.79124 9.18738 8.17351 8.56315 7.56228C8.34857 7.3607 8.07547 7.3477 7.81537 7.47125C7.55527 7.58829 7.43173 7.80937 7.43823 8.12799ZM9.47349 5.26042C9.10935 5.26042 8.90128 5.39047 8.77773 5.65057C8.64768 5.93017 8.6997 6.19677 8.90778 6.41135C9.21339 6.72997 9.52551 7.03558 9.83112 7.3412C10.2603 7.77036 10.6829 8.20602 11.1251 8.62868C11.4957 8.97981 12.068 8.85626 12.2435 8.39459C12.3736 8.05646 12.263 7.82888 11.9379 7.67932C10.9821 7.23066 10.2603 6.5479 9.84413 5.57254C9.7596 5.34495 9.62955 5.25392 9.47349 5.26042ZM8.87527 11.5938C8.86876 11.4182 8.82975 11.2752 8.73221 11.1646C8.26404 10.6379 7.76986 10.1372 7.23666 9.67557C6.97656 9.44798 6.56691 9.5065 6.33282 9.7536C6.09223 10.0007 6.06622 10.3973 6.30681 10.6574C6.77498 11.1516 7.25616 11.6328 7.75035 12.101C7.96493 12.3025 8.23803 12.309 8.49813 12.179C8.75172 12.0555 8.86226 11.8409 8.87527 11.5938ZM6.48237 13.9607C6.76198 13.9607 6.96355 13.8306 7.0871 13.59C7.21715 13.3364 7.19114 13.0763 7.00907 12.8618C6.83351 12.6537 6.63193 12.4586 6.43036 12.2765C6.20277 12.075 5.93617 12.0555 5.66307 12.1855C5.40297 12.3156 5.29243 12.5366 5.29893 12.8227C5.31194 13.2389 6.05972 13.9607 6.48237 13.9607ZM11.1771 5.02633C10.7675 5.01333 10.735 5.04584 10.8455 5.27993C11.1186 5.85214 11.5673 6.26179 12.094 6.59992C12.172 6.65194 12.2435 6.63893 12.3085 6.57391C12.6402 6.24229 12.9718 5.91066 13.3034 5.57904C13.388 5.49451 13.3749 5.43599 13.2579 5.41648C12.5231 5.27993 11.7884 5.14338 11.1771 5.02633Z" fill="#01053A"/>
  <path d="M18.5507 2.92604C18.1866 2.91304 17.9395 2.51639 18.1085 2.19127C18.1541 2.10673 18.2191 2.02871 18.2841 1.96368C18.8368 1.40447 19.3895 0.845264 19.9552 0.299061C20.2803 -0.0195583 20.7485 0.103988 20.8526 0.520143C20.9046 0.721718 20.8201 0.884279 20.6835 1.02733C20.4884 1.23541 20.2869 1.43048 20.0853 1.63206C19.7146 1.99619 19.344 2.36033 18.9799 2.72447C18.8563 2.84151 18.7198 2.91954 18.5507 2.92604Z" fill="#01053A"/>
  <path d="M6.75561 2.41265C6.7361 2.61422 6.64507 2.78329 6.44999 2.87432C6.23541 2.97186 6.03384 2.92634 5.87128 2.76378C5.52015 2.41915 5.16902 2.06802 4.81788 1.71689C4.5838 1.4828 4.34321 1.24872 4.11562 1.00813C3.88804 0.767536 3.87503 0.487932 4.08311 0.273352C4.29119 0.0522695 4.5968 0.0522695 4.83739 0.286357C5.42261 0.85857 5.99482 1.44379 6.57354 2.016C6.68408 2.12654 6.7426 2.25659 6.75561 2.41265Z" fill="#01053A"/>
  <path d="M3.89409 21.4389C3.89409 21.725 3.66 21.9526 3.3869 21.9461C3.1073 21.9396 2.88622 21.7055 2.89272 21.4259C2.89922 21.1333 3.1138 20.9187 3.39991 20.9187C3.68601 20.9187 3.89409 21.1398 3.89409 21.4389Z" fill="#01053A"/>
  <path d="M16.652 16.1456C16.9316 16.1391 17.1657 16.3602 17.1787 16.6398C17.1917 16.9194 16.9511 17.1665 16.6585 17.1665C16.3919 17.1665 16.1448 16.9324 16.1383 16.6593C16.1318 16.3992 16.3789 16.1522 16.652 16.1456Z" fill="#01053A"/>
</svg>