<svg xmlns="http://www.w3.org/2000/svg" width="32" height="32" viewBox="0 0 32 32" fill="none">
  <path d="M24.1635 13.5742C24.1635 11.557 22.5281 9.92163 20.5109 9.92163H11.1106C9.09336 9.92163 7.45801 11.557 7.45801 13.5742V17.6982C7.45801 19.7155 9.09336 21.3508 11.1106 21.3508H20.5109C22.5281 21.3508 24.1635 19.7155 24.1635 17.6982V13.5742ZM18.9934 15.7441L14.7897 17.8161C14.6253 17.9058 14.0525 17.7862 14.0525 17.5986V13.3451C14.0525 13.1558 14.6303 13.0379 14.7947 13.1309L18.8108 15.3125C18.9802 15.4088 19.1644 15.6528 18.9934 15.7441Z" fill="white"/>
  <path d="M15.8106 0C7.18888 0 0.174316 7.01456 0.174316 15.6363C0.174316 24.2579 7.18888 31.2725 15.8106 31.2725C24.4323 31.2725 31.4468 24.2579 31.4468 15.6363C31.4468 7.01456 24.4323 0 15.8106 0ZM15.8106 29.2669C8.29461 29.2669 2.1799 23.1522 2.1799 15.6363C2.1799 8.12029 8.29461 2.00558 15.8106 2.00558C23.3265 2.00558 29.4412 8.12029 29.4412 15.6363C29.4412 23.1522 23.3265 29.2669 15.8106 29.2669Z" fill="white"/>
</svg>